<svg id="Layer_1" data-name="Layer 1" xmlns="http://www.w3.org/2000/svg" viewBox="0 0 100 79.92"><title>basket</title><path d="M91.57,29.61q-30.23-1.52-60.47-2.18c-4.93-.15-9.86-.15-14.65-.15-1.6,0-10.59.29-10.59.44C4.43,26,4,21.2,3.56,18a60.06,60.06,0,0,1,8.85-.15c4.06,0,8.12.15,12.18.15a8.8,8.8,0,0,0-1.45,1,1.69,1.69,0,0,0,1.74,2.9c1.89-1.16,3.92-2.47,5.8-3.77,2.32,0,4.64,0,7,.15,11.31.15,22.77.44,34.08.73a70,70,0,0,0,5.51,5.8c1.31,1.16,3.77-.44,2.61-2-.87-1.16-1.74-2.47-2.61-3.63,6.24.15,12.47.44,18.56.87C94.91,23.37,93.17,26.42,91.57,29.61ZM81.86,69.48c-.44,2-.15,4.93-1.74,5.95S75.19,76,73.3,76a93.85,93.85,0,0,1-12.76-.44c-6.09-.58-12.18-1.16-18.42-1.16H32.41c-2.9,0-7.54,1-10.3,0-5.95-2.18-7.54-17.69-8.56-23.35-1.31-6.82-2.47-13.78-4.35-20.45,26.39.15,52.93.73,79.32,1.89C85.77,44.69,84,57.3,81.86,69.48ZM98.24,16.56c-8-.44-16-.73-23.93-1A116.37,116.37,0,0,0,58.22,1c-1.74-1.31-4.21,1-2.47,2.47A125.43,125.43,0,0,1,67.07,13.66c.58.58,1,1.16,1.6,1.74C57.79,15.11,46.91,15,36,14.82h-.29A68.32,68.32,0,0,0,49.23,2.64c1-1.16-.29-3.48-1.74-2.32-3.77,2.76-7.11,6.24-10.73,9.14-2.32,1.89-4.64,3.63-7.11,5.37-6.09-.15-12-.15-18.13-.15-3.63,0-6.82-.29-10.3.58A1.74,1.74,0,0,0,.08,17.43C1.09,21.49,2,25.55,3,29.61a1.7,1.7,0,0,0,1.6,1.31H6.31c4.5,15.52,4.64,31.9,11.75,46.55a1.82,1.82,0,0,0,1.6.87c11.89.29,23.78-.44,35.53.73,7.83.44,16,1.45,23.78.44s6.53-8,7.69-14.79c1.89-10.59,4.64-21.32,5.8-32a1.09,1.09,0,0,0,.73-.15h.15a2.55,2.55,0,0,0,.73-.58A31.21,31.21,0,0,0,100,18.73,1.81,1.81,0,0,0,98.24,16.56Z"/><path d="M33.86,70.06a1.45,1.45,0,0,0,2.61-1.16C34.88,58.9,31,48,27.34,38.45c-.73-2-4.06-1.16-3.34.87C27.48,49.18,28.64,61.07,33.86,70.06Z"/><path d="M42.85,70.21c.87,1.74,3.19.44,2.9-1.16C44,59.48,43,49,40,39.76c-.73-2-3.92-1.16-3.34.87C39.66,50.05,38.36,61.07,42.85,70.21Z"/><path d="M55.47,70.5c1.89-9.57,1-20.3,1.31-30,0-2.18-3.34-2.18-3.48,0-.44,9.57-2,20-.87,29.58C52.71,71.51,55,72.24,55.47,70.5Z"/><path d="M68.81,70.5c1.45-10.15,2.61-19.87,5.37-29.73a1.82,1.82,0,0,0-3.48-1c-2.9,9.72-5.22,20-5.37,30.16C65.33,71.95,68.52,72.53,68.81,70.5Z"/></svg>