<svg id="Layer_1" data-name="Layer 1" xmlns="http://www.w3.org/2000/svg" viewBox="0 0 88.42 70.67"><title>basket</title><path d="M81,26.18q-26.73-1.35-53.47-1.92c-4.36-.13-8.72-.13-12.95-.13-1.41,0-9.36.26-9.36.38C3.91,23,3.53,18.74,3.14,15.92A53.1,53.1,0,0,1,11,15.79c3.59,0,7.18.13,10.77.13a7.78,7.78,0,0,0-1.28.9A1.5,1.5,0,0,0,22,19.38c1.67-1,3.46-2.18,5.13-3.33,2.05,0,4.1,0,6.15.13,10,.13,20.13.38,30.13.64a61.92,61.92,0,0,0,4.87,5.13c1.15,1,3.33-.38,2.31-1.8-.77-1-1.54-2.18-2.31-3.21,5.51.13,11,.38,16.41.77A44.72,44.72,0,0,1,81,26.18ZM72.38,61.44c-.38,1.8-.13,4.36-1.54,5.26s-4.36.51-6,.51a83,83,0,0,1-11.28-.38c-5.39-.51-10.77-1-16.28-1H28.66c-2.56,0-6.67.9-9.1,0C14.3,63.87,12.89,50.16,12,45.16c-1.15-6-2.18-12.18-3.85-18.08,23.34.13,46.8.64,70.13,1.67C75.84,39.51,74.3,50.67,72.38,61.44Zm14.49-46.8c-7.05-.38-14.1-.64-21.16-.9A102.9,102.9,0,0,0,51.48.92c-1.54-1.15-3.72.9-2.18,2.18a110.91,110.91,0,0,1,10,9c.51.51.9,1,1.41,1.54-9.62-.26-19.23-.38-28.85-.51h-.26A60.41,60.41,0,0,0,43.53,2.33c.9-1-.26-3.08-1.54-2.05-3.33,2.44-6.28,5.51-9.49,8.08-2.05,1.67-4.1,3.21-6.28,4.74C20.84,13,15.58,13,10.2,13c-3.21,0-6-.26-9.1.51a1.54,1.54,0,0,0-1,1.92C1,19,1.73,22.59,2.63,26.18A1.5,1.5,0,0,0,4,27.33H5.58c4,13.72,4.1,28.21,10.39,41.16a1.61,1.61,0,0,0,1.41.77c10.51.26,21-.38,31.41.64,6.92.38,14.1,1.28,21,.38s5.77-7.05,6.8-13.08c1.67-9.36,4.1-18.85,5.13-28.34a1,1,0,0,0,.64-.13h.13a2.25,2.25,0,0,0,.64-.51,27.6,27.6,0,0,0,5.26-11.67A1.6,1.6,0,0,0,86.87,14.64Z"/><path d="M30.3,61.28a1.25,1.25,0,0,0,2.25-1c-1.38-8.62-4.75-18-7.88-26.25-.62-1.75-3.5-1-2.87.75C24.8,43.28,25.8,53.53,30.3,61.28Z"/><path d="M38,61.41c.75,1.5,2.75.38,2.5-1-1.5-8.25-2.37-17.25-5-25.25-.62-1.75-3.37-1-2.87.75C35.3,44,34.17,53.53,38,61.41Z"/><path d="M48.92,61.66c1.63-8.25.88-17.5,1.13-25.87,0-1.87-2.87-1.87-3,0C46.67,44,45.3,53,46.3,61.28,46.55,62.53,48.55,63.16,48.92,61.66Z"/><path d="M60.42,61.66C61.67,52.91,62.67,44.53,65,36a1.57,1.57,0,0,0-3-.87c-2.5,8.38-4.5,17.25-4.62,26C57.42,62.91,60.17,63.41,60.42,61.66Z"/></svg>