<svg id="Layer_1" data-name="Layer 1" xmlns="http://www.w3.org/2000/svg" viewBox="0 0 452.57 535.83"><defs><style>.cls-1{fill:#fff;}</style></defs><title>fleure</title><path class="cls-1" d="M181.76,358.62c-30,0-30,45.1,0,45.1H301c30,0,30-45.1,0-45.1H181.76Z" transform="translate(-15.12 -14.08)"/><path class="cls-1" d="M181.62,352.78h23.78l-.23-2C196.77,275.21,139.7,180,55.53,196.82c-36.44,7.34-51.11,54.61-32,92.93a81.49,81.49,0,0,0,11.76,17.53c1.79-5.3,4.48-27.58,25-35.87C115.81,247.22,164.39,297.35,181.62,352.78Z" transform="translate(-15.12 -14.08)"/><path class="cls-1" d="M222.79,347q1,5.77,1.43,5.77h34.37q.47,0,1.43-5.77c6.46-39,24.37-74.84,36.56-112.26q21.26-68.7-7.36-141c-7.57-19.11-30.74-63.9-47.81-79.73-17.07,15.84-40.23,60.62-47.81,79.73q-28.62,72.27-7.36,141C198.42,272.21,216.33,308,222.79,347Z" transform="translate(-15.12 -14.08)"/><path class="cls-1" d="M363.4,434.57c-8.15,4.21-16.71,8.7-18.88,19.7-22,4.08-43.2-16-47.28-44.83h-19.7c-.14-.14.82,35.19,21.06,56.92,18.21,19.56,42.8,37,70.65,29.48C426.71,479,398.32,420.58,363.4,434.57Z" transform="translate(-15.12 -14.08)"/><path class="cls-1" d="M184.2,466.36c20.24-21.74,21.19-57.06,21.06-56.92h-19.7c-4.08,28.8-25.27,48.91-47.28,44.83-2.17-11-10.73-15.49-18.89-19.7-34.92-14-63.31,44.43-5.84,61.27C141.41,503.31,166,485.92,184.2,466.36Z" transform="translate(-15.12 -14.08)"/><path class="cls-1" d="M427.27,196.82C343.1,180,286,275.21,277.64,350.74l-.23,2h23.78c17.23-55.43,65.8-105.56,121.38-81.38,20.49,8.29,23.18,30.57,25,35.87a81.53,81.53,0,0,0,11.76-17.53C478.38,251.43,463.71,204.15,427.27,196.82Z" transform="translate(-15.12 -14.08)"/><path class="cls-1" d="M257.91,409.5l-16.51.07-16.51-.07c-.07.2-6.72,72.21-44.36,97.89,0,1.75,25.93,17.91,36.82,3.4-2.58,13.18,2,37.76,24,39.13,22-1.37,26.63-25.95,24-39.13,10.89,14.52,36.85-1.65,36.82-3.4C264.63,481.71,258,409.71,257.91,409.5Z" transform="translate(-15.12 -14.08)"/></svg>
