<svg id="Layer_1" data-name="Layer 1" xmlns="http://www.w3.org/2000/svg" viewBox="0 0 100 94.5"><defs><style>.cls-1{fill:#8b683e;fill-rule:evenodd;}</style></defs><title>leaf</title><path class="cls-1" d="M50.78,88.13V86.84l0-5,.05-18,8.63,7.26-8.62-8.69,0-14.67,10.92,9.15-10.89-11,0-15.93.2,0,22.55,13.3,2.45,8.52-1.71-8.1,4.81,2.86,2.58,9L80,47l12.16,7.18.07-.11-12-7.59,10.23-1.93L79.26,45.85l-6.64-4.17,17.8-3.35L70.93,40.59l-9.69-6.11,27-5.45L59.34,33.27l-6.09-3.84L86.75,10.72l0-.12L72.6,17.85,78.93,3.62l-8,15.1L62.59,23,71.15,3.42,60.88,23.85l-9.09,4.67-.33-.2c2-.84,3.64-2.78,4.11-6.44C56,18.46,55.08,2,61.3,1.67c.4,2.54.69,4,1.93,4.55,2.39,1,5.65-6.33,10.44-6.22a1.75,1.75,0,0,0-.21,1.08c.06,2.19,2.57,4.36,3.76,3C79.39,2,83.07,2.29,83.87,2.57a5.24,5.24,0,0,0-1.14,3.62C84.49,4.91,87.8,5.7,88.5,7c-1.15.29-2.07,1.05-2.08,1.47,2.79-.07,6,3.2,6,6-1.78,0-4,.75-6.86,2.29-3.07,1.65-2.71,4.32-7.24,3.91A6.63,6.63,0,0,0,74.11,22a3.7,3.7,0,0,0-1,3.35c.33,2,3.31,2.64,5.62,2.58,2.86-.06,7.51-1.45,9.71-1.3A10.49,10.49,0,0,1,94,29.29c1.61,1.41,2.82,3.2,2.87,5a5,5,0,0,0-3.69,1.52c-1.18,1.25-.91,2.1,0,3a11.91,11.91,0,0,0,2.19,1.41c.91.57,2.85,2.88,2.87,3.95C96.31,44.25,96,45,95,46.4c2,0,4.79,3.71,5,5.69-1.24-.22-3.15.23-3,2a2.86,2.86,0,0,1,1.88,1.19,4,4,0,0,1,1,2.66c-1-.55-2.73-.22-2.86.22a6.26,6.26,0,0,1-.08,7.35c-.62-1-5.4-1.74-6.83-.6a2.84,2.84,0,0,1-.22,2.31c-.46-.31-3.54-2.51-4.55-2.48a6.16,6.16,0,0,1-.07,2.24,21.26,21.26,0,0,0-3.87-3.64c-3.83-2.73-7-5.65-9.14-10-.76-1.57-1.15-3.22-2.65-4.17-5.87-3.73-7.41,3.72-6.23,6.61.86,2.1,1.11,4.2,2.41,5.45,1.63,1.54,3.4,2.1,4.93,5.26a17.45,17.45,0,0,1,1.09,10c-3.46-2.41-5.32-2.88-6.66-1.74-.68.59,0,2.19.35,4a8.7,8.7,0,0,1-.06,2.76,5.27,5.27,0,0,0-3.63-1.15c-2.79.07-2.24,3.78-1.84,5.58-1.55.58-2.59-.64-3.53-.11-2.44,1.44-3.52,5.47-5.49,8.56l-.06.06,0,0c-2.09-3-3.35-7-5.84-8.34-1-.51-2,.76-3.55.24.34-1.81.72-5.55-2-5.47a5.17,5.17,0,0,0-3.57,1.29,9.48,9.48,0,0,1-.19-2.78c.24-1.82.88-3.48.17-4-1.36-1.08-3.19-.54-6.57,2a17.56,17.56,0,0,1,.67-10.06c1.4-3.24,3.15-3.86,4.7-5.47,1.25-1.3,1.41-3.41,2.19-5.53C37.86,53.4,36,46,30.27,50c-1.45,1-1.76,2.65-2.46,4.26-1.91,4.4-5,7.45-8.71,10.35a20.33,20.33,0,0,0-3.73,3.79,5.88,5.88,0,0,1-.16-2.22c-1,0-4,2.32-4.44,2.67a2.93,2.93,0,0,1-.32-2.3c-1.5-1.08-6.22-.09-6.81.88a6.28,6.28,0,0,1-.37-7.35c-.13-.43-1.91-.68-2.87-.09a4,4,0,0,1,.87-2.7A3,3,0,0,1,3.11,56C3.17,54.24,1.24,53.9,0,54.17c.15-2,2.76-5.85,4.82-5.9-1.05-1.34-1.46-2.09-3.38-2.05,0-1.06,1.84-3.45,2.7-4.05a12.18,12.18,0,0,0,2.15-1.52c.87-1,1.11-1.84-.13-3a5,5,0,0,0-3.74-1.38,7.33,7.33,0,0,1,2.66-5.07,10.31,10.31,0,0,1,5.43-2.87c2.17-.24,6.89,1,9.73.89,2.31,0,5.26-.8,5.54-2.8a3.78,3.78,0,0,0-1.15-3.31,6.58,6.58,0,0,0-4.32-1.16c-4.49.6-4.25-2.08-7.38-3.58-2.95-1.45-5.18-2.05-7-2-.07-2.82,3-6.2,5.79-6.27,0-.42-1-1.15-2.13-1.39.63-1.33,3.91-2.26,5.75-1.08A5.31,5.31,0,0,0,14.08,4c.8-.31,4.44-.73,6.71,1.26,1.27,1.28,3.68-1,3.64-3.17A1.62,1.62,0,0,0,24.16,1C29,.72,32.51,7.88,34.85,6.81c1.22-.56,1.45-2.08,1.74-4.63,6.22.09,6,16.56,6.54,20,.64,3.65,2.35,5.51,4.38,6.25l-.31.23-9.27-4.28-11.11-20,9.34,19.19-8.47-3.92L19,4.87,26,18.81,11.58,12.15l-.05.12L45.8,29.59l-5.94,4.09-29-3.06L38,35l-9.45,6.53L9,40l17.93,2.61-6.45,4.45L9.23,46.21l10.3,1.5L7.82,55.8l.08.1,11.86-7.65-1.48,8.6,2.21-9.09,4.7-3-1.39,8.15,2.09-8.6,22-14.22.19-.06.75,15.89L38.35,57.34l10.54-9.62.68,14.62-8.31,9.09,8.4-7.64,1,22.53,0,1.81,0-1.81Z"/></svg>
