<svg xmlns="http://www.w3.org/2000/svg" xmlns:xlink="http://www.w3.org/1999/xlink" width="77.719" height="147.81" viewBox="0 0 77.719 147.81">
  <metadata><?xpacket begin="﻿" id="W5M0MpCehiHzreSzNTczkc9d"?>
<x:xmpmeta xmlns:x="adobe:ns:meta/" x:xmptk="Adobe XMP Core 5.6-c138 79.159824, 2016/09/14-01:09:01        ">
   <rdf:RDF xmlns:rdf="http://www.w3.org/1999/02/22-rdf-syntax-ns#">
      <rdf:Description rdf:about=""/>
   </rdf:RDF>
</x:xmpmeta>
                                                                                                    
                                                                                                    
                                                                                                    
                                                                                                    
                                                                                                    
                                                                                                    
                                                                                                    
                                                                                                    
                                                                                                    
                                                                                                    
                                                                                                    
                                                                                                    
                                                                                                    
                                                                                                    
                                                                                                    
                                                                                                    
                                                                                                    
                                                                                                    
                                                                                                    
                                                                                                    
                           
<?xpacket end="w"?></metadata>
<defs>
    <style>
      .cls-1 {
        fill: #938a71;
        fill-rule: evenodd;
        filter: url(#filter);
      }
    </style>
    <filter id="filter" x="831.156" y="4647.19" width="77.719" height="147.81" filterUnits="userSpaceOnUse">
      <feFlood result="flood" flood-color="#fff"/>
      <feComposite result="composite" operator="in" in2="SourceGraphic"/>
      <feBlend result="blend" in2="SourceGraphic"/>
    </filter>
  </defs>
  <path class="cls-1" d="M854.117,4756a3.736,3.736,0,0,0-1.346-2.72,1.346,1.346,0,0,1-.54-1.12,15.09,15.09,0,0,0-.419-2.25c-0.22-1.1-.438-2.2-0.638-3.21-0.457-.21-0.839-0.41-1.243-0.55a1.281,1.281,0,0,0-.7-0.02,19.213,19.213,0,0,1-2.044.65,20.434,20.434,0,0,1-3.392.38,25.484,25.484,0,0,1-4.186-.32,10.248,10.248,0,0,1-4.34-1.66c0.058-.1.12-0.21,0.181-0.31a0.355,0.355,0,0,0-.145-0.06,0.97,0.97,0,0,1-.447.01,2.78,2.78,0,0,1-1.025-1.51,1.009,1.009,0,0,1,.71-1.4,2.375,2.375,0,0,0,.706-0.61,3.65,3.65,0,0,1,1.7-1.31,0.641,0.641,0,0,0,.261-0.12c1.123-.82,2.51-0.87,3.774-1.27a2.457,2.457,0,0,1,1.047-.03,11.465,11.465,0,0,1,5.73,2.45,9.792,9.792,0,0,0,1.578.88,4.992,4.992,0,0,0-1.176-3.32c-0.633-.62-0.637-0.63-0.225-1.36a1.158,1.158,0,0,0,.155-1.15,4.545,4.545,0,0,1-.174-1.21c-1.1.28-1.2,0.23-1.786-.98-0.685.64-1.674,0.27-2.415,0.78-1.065-.41-2.224.16-3.317-0.41a9.778,9.778,0,0,0-2.277-.51,10.916,10.916,0,0,1-4.735-2.75,8.716,8.716,0,0,1-1.476-2.04,2.347,2.347,0,0,1,.681-2.8,0.594,0.594,0,0,1,.516-0.06,1.136,1.136,0,0,0,1.073-.07,13.532,13.532,0,0,1,4.7-.81c2.358,0.03,4.191,1.13,6,2.37a4.811,4.811,0,0,1,.832,1.01c0.177,0.23.349,0.46,0.524,0.68,0.247,0.32.485,0.64,0.75,0.94a3.162,3.162,0,0,0,.536.37,3.611,3.611,0,0,0,0-.64,3.991,3.991,0,0,1-.23-0.71,4.629,4.629,0,0,0-.607-2.24,1.988,1.988,0,0,1-.075-1.29,30.9,30.9,0,0,0,.064-3.6,1.281,1.281,0,0,0-.2-0.83,1.328,1.328,0,0,1-.166-1.36,2.049,2.049,0,0,0-.805.13,2.41,2.41,0,0,1-1.667.53,1.548,1.548,0,0,0-.644.12,1.668,1.668,0,0,1-1.417.05,9.233,9.233,0,0,0-2.055-.25,1.175,1.175,0,0,1-.379-0.04c-1.2-.53-2.558-0.72-3.626-1.52a21.291,21.291,0,0,1-2.429-2.14,9.842,9.842,0,0,1-1.993-2.94,1.646,1.646,0,0,1,.334-1.88,0.939,0.939,0,0,1,1.543.16,2.484,2.484,0,0,1,.186.29c0.886-.53,1.668-1.01,2.47-1.45,0.228-.13.527-0.12,0.768-0.23,0.126-.06.181-0.29,0.308-0.34a5.287,5.287,0,0,1,6.857,1.57,41.12,41.12,0,0,1,2.578,3.36,3.248,3.248,0,0,0,.412.59,4.625,4.625,0,0,0-.019-1.91,2.482,2.482,0,0,1,.219-2.43,6.117,6.117,0,0,0,.853-2.41,2.175,2.175,0,0,1,.326-1.04,0.5,0.5,0,0,0-.011-0.81,1.685,1.685,0,0,0-1.66-.81,7.772,7.772,0,0,1-3.422-.37,22.073,22.073,0,0,1-5.737-1.93,9.021,9.021,0,0,1-3.079-2.32,2.328,2.328,0,0,1,.209-3.42c0.284,0.12.6,0.26,0.942,0.41a6.571,6.571,0,0,1,4.523-1.93,6.818,6.818,0,0,1,4.427,1.11,10.025,10.025,0,0,1,4.205,4.79,1.7,1.7,0,0,0,.266.34,0.753,0.753,0,0,0,.132-0.28,1.867,1.867,0,0,1,.37-1.95,10.065,10.065,0,0,0,1.266-3.41c-0.527-.07-1.061-0.1-0.971-0.77a1.384,1.384,0,0,1,.123-0.45,1.262,1.262,0,0,0,.183-1.18c-0.12.05-.225,0.09-0.322,0.14-0.456.23-.7-0.4-1.22-0.25a2.651,2.651,0,0,1-1.369-.26c-0.441-.16-0.829-0.47-1.271-0.62a18.451,18.451,0,0,1-2.574-1.68,9.439,9.439,0,0,1-2.145-2.27,7.24,7.24,0,0,1-.686-1.05,8.023,8.023,0,0,1-.827-3.29,1.751,1.751,0,0,1,1.431-1.91c0.125-.03.248-0.07,0.45-0.12a2.138,2.138,0,0,0,1.761.58,18.309,18.309,0,0,1,3.774.5,5.456,5.456,0,0,1,3.238,2.68,12.892,12.892,0,0,1,1.717,4.02c0.1,0.53.2,1.05,0.31,1.6a0.551,0.551,0,0,0,.255-0.03,4.927,4.927,0,0,0,.561-1.86,2.794,2.794,0,0,1,1-2.43,4.61,4.61,0,0,0,1.393-2.5,6.583,6.583,0,0,1,.425-1.03c0.2-.55.137-0.67-0.469-0.69a6.358,6.358,0,0,1-4.818-2.57c-0.763-.92-1.472-1.89-2.164-2.87a3.1,3.1,0,0,1-.414-1.05c-0.2-.86-0.357-1.72-0.531-2.59a1.075,1.075,0,0,0-.047-0.27c-0.662-1.24.317-1.99,0.9-2.82a2.276,2.276,0,0,1,.884-0.41,1.681,1.681,0,0,0,1.786.74,6.723,6.723,0,0,1,5.77,2.92,0.747,0.747,0,0,1,.165.34c0.067,1.04.834,1.83,0.978,2.84,0.133,0.95.229,1.9,0.366,3.05a4.168,4.168,0,0,0,.585-0.79,7.763,7.763,0,0,1,1.76-2.36c0.71-.81,1.433-1.6,2.146-2.41a0.432,0.432,0,0,0,.138-0.24,7.157,7.157,0,0,0-.159-2.02,4.736,4.736,0,0,0-1.106-1.37c-0.1-.11-0.349-0.1-0.415-0.21a14.052,14.052,0,0,1-1.042-1.96,19.532,19.532,0,0,1-.76-2.59,5.658,5.658,0,0,1-.029-1.94,6.14,6.14,0,0,1,1.093-2.88,2.483,2.483,0,0,0,.2-0.81,1.355,1.355,0,0,1,1.75-.99,12.677,12.677,0,0,1,1.625.78,3.921,3.921,0,0,1,1.993,2.63,11.036,11.036,0,0,1,.039,5.97c-0.2.71-.346,1.44-0.516,2.15,0.065,0.05.128,0.09,0.192,0.13,0.434-.44.872-0.87,1.3-1.31,1.5-1.55,3-3.11,4.5-4.66a1.2,1.2,0,0,0,.486-1.24,1.735,1.735,0,0,1,.3-0.78,6.312,6.312,0,0,1-2.754-3.46c-0.2-.59-0.674-1.11-0.358-1.8a1.3,1.3,0,0,1-.327-1.33,13.818,13.818,0,0,1,.665-2.94,5.289,5.289,0,0,1,2.229-2.79,8.313,8.313,0,0,1,.893.17,4.646,4.646,0,0,1,3.647,3.46,9.1,9.1,0,0,1-.174,4.83c-0.164.54-.35,1.08-0.5,1.62a2.788,2.788,0,0,0-.006.63,5.921,5.921,0,0,0,.6-0.28c1.055-.63,2.083-1.33,3.174-1.9a19.344,19.344,0,0,1,2.138-.79c0.555-.22,1.087-0.5,1.758-0.81-0.453-.41-0.792-0.74-1.151-1.05a4.114,4.114,0,0,1-1.24-3.42,1.685,1.685,0,0,0,.08-0.16c-0.511-.92-0.009-1.72.28-2.54a5.655,5.655,0,0,1,1.421-2.85,2.761,2.761,0,0,0,.363-1.32,3.5,3.5,0,0,1,3.313.52,4.961,4.961,0,0,1,1.957,2.29,2.724,2.724,0,0,1,.185,1.17,7.664,7.664,0,0,1-1.418,4.7,10.236,10.236,0,0,0-.6,1.03,8.047,8.047,0,0,0,.959-0.33c1.294-.66,2.56-1.38,3.876-2a25.925,25.925,0,0,1,2.722-1.02,0.8,0.8,0,0,0,.736-1,6.154,6.154,0,0,1,1.288-3.31,16.3,16.3,0,0,1,1.66-1.89,1.128,1.128,0,0,1,1.3-.54,0.961,0.961,0,0,0,.58-0.29c0.921-.7,2.007-0.47,3.019-0.49a5.468,5.468,0,0,1,3.094.63,4.327,4.327,0,0,0,1.642.14,1.807,1.807,0,0,1,1.461,1.23,2.516,2.516,0,0,1-.08,1.63,6.313,6.313,0,0,0-.1.81c-0.231.7-.478,1.4-0.778,2.08a2.088,2.088,0,0,1-.489,1.12,1.076,1.076,0,0,0-.792.83c-0.8.07-1.031,1.14-1.909,1.09-1.4,1.04-3.094,1.08-4.712,1.26a7.946,7.946,0,0,1-3.579-.32,18.862,18.862,0,0,0-1.837-.47,0.731,0.731,0,0,1-.364-0.1c-0.716-.97-1.429-0.17-2.1.04a7.2,7.2,0,0,0-1.41.83,0.593,0.593,0,0,0,.657.37,5.231,5.231,0,0,1,3.116.64,6.914,6.914,0,0,1,1.475.6,15.635,15.635,0,0,1,1.886,1.73c0.312,0.38.691,0.73,0.964,1.14a1.183,1.183,0,0,1,.145.81,1.862,1.862,0,0,1-2.138,1.3,7.051,7.051,0,0,1-2.563-1.02,3.146,3.146,0,0,0-1.06-.43,8.616,8.616,0,0,1-3.909-2.94,4.984,4.984,0,0,1-.53-1.07c-2.412.74-4.518,2.12-6.913,2.97a0.716,0.716,0,0,0,.6.5,3.086,3.086,0,0,1,1.634.72,6.85,6.85,0,0,1,2.939,2.83c0.373,0.84,1.051,1.54,1.441,2.37a3.5,3.5,0,0,1,.032,1.41,2.836,2.836,0,0,1-2.869.33,13.993,13.993,0,0,1-3.075-1.23,10.963,10.963,0,0,1-3.878-3.22c-0.277-.41-0.475-0.87-0.741-1.36-0.627-.16-1.037.44-1.472,0.75a32.656,32.656,0,0,0-2.81,2.49c-0.368.35-.66,0.77-1,1.15-0.4.44-.823,0.86-1.327,1.39,0.652,0.09,1.192.19,1.735,0.22a8.344,8.344,0,0,1,5.265,2.32,5.334,5.334,0,0,1,1.246,1.7,3.049,3.049,0,0,1,.052,1.48,0.806,0.806,0,0,1-.478.4,6.275,6.275,0,0,0-1.27.48,2.883,2.883,0,0,1-2.813.16,19.5,19.5,0,0,1-2.154-.64,8.959,8.959,0,0,1-2.864-1.66,8.2,8.2,0,0,0-1.222-1.01,0.862,0.862,0,0,0-.7-0.04,3.934,3.934,0,0,0-.848.75c-0.8.89-1.6,1.78-2.382,2.68-0.426.5-.8,1.04-1.259,1.63a3.159,3.159,0,0,0,.549.25c0.619,0.16,1.262.25,1.858,0.47a9.073,9.073,0,0,1,1.7.83,6.591,6.591,0,0,1,1.336,1.06,1.524,1.524,0,0,0,1.514.56,14.416,14.416,0,0,1,.623,2.29,5.793,5.793,0,0,1-.356,1.68,1.677,1.677,0,0,0-1.958.47,3.341,3.341,0,0,1-2.614.43,6.126,6.126,0,0,1-3.139-1.28c-0.606-.46-1.261-0.86-1.858-1.33a9.546,9.546,0,0,1-.958-1.02c-1.129,1.66-2.418,3.03-2.984,4.94a2.885,2.885,0,0,0,.642.15,10.238,10.238,0,0,1,3.151.63,3.6,3.6,0,0,1,1.251.75,2.163,2.163,0,0,0,1.5.58,0.649,0.649,0,0,1,.779.74,2.145,2.145,0,0,0,.424,1.22,1.113,1.113,0,0,1-.743,1.68,2.59,2.59,0,0,0-.7.41,10.069,10.069,0,0,1-1.38,1.12,4.388,4.388,0,0,1-3.963-.19c-1.115-.49-2.165-1.13-3.28-1.72a14.173,14.173,0,0,0-2.033,5.07,13.769,13.769,0,0,1,8.959.94c-0.109.87-.215,1.6-1.15,1.76a3.075,3.075,0,0,1-2.535,3.04c-0.7.14-1.374,0.37-2.07,0.5a5.844,5.844,0,0,1-1.607.16c-1.029-.08-2.054-0.25-3.171-0.4a35.577,35.577,0,0,0-1.209,4.64c0.723-.24,1.364-0.17,2.031-0.45a8.5,8.5,0,0,1,2.5-.32c0.691-.05,1.384-0.05,2.075-0.1a1.473,1.473,0,0,1,1.539,2.08,6.558,6.558,0,0,1-.672,1.96c-0.154.19-.086,0.57-0.244,0.75a6.4,6.4,0,0,1-1.142,1.05c-1.971,1.36-4.6,1.28-7,1.09a9.516,9.516,0,0,1,.074,2.59,17.558,17.558,0,0,0-.084,2.5c-0.095.87-.125,1.75-0.193,2.78a5.468,5.468,0,0,0,.63-0.28c0.755-.47,1.5-0.96,2.26-1.43a0.9,0.9,0,0,1,.357-0.13,16.234,16.234,0,0,1,3.863-.52,1.206,1.206,0,0,0,.66-0.06,0.867,0.867,0,0,1,1.05.15,2.344,2.344,0,0,1,1.285,2.21,3.4,3.4,0,0,0-1.356,1.63,5.809,5.809,0,0,1-3.164,2.5,19.275,19.275,0,0,1-5.024,1.11,7.207,7.207,0,0,0,.257,1.81c0.349,0.83.082,1.67,0.253,2.49a2.887,2.887,0,0,1-.1.7,1.645,1.645,0,0,0,.082.39c0.064,0.35.122,0.7,0.214,1.23a6.432,6.432,0,0,1,3.264-2.22,7.657,7.657,0,0,1,4.512-.57,1.462,1.462,0,0,0,1.457-.14,1.406,1.406,0,0,1,1.048.36,1.256,1.256,0,0,1,.442.9,3.229,3.229,0,0,1-.632,1.92,9.027,9.027,0,0,1-6.723,3.42,21.474,21.474,0,0,0-2.361.49,23.291,23.291,0,0,0,1.173,3.94c0.371,1.27.753,2.54,1.13,3.81,0.089,0.06.179,0.12,0.266,0.18a1.4,1.4,0,0,1,.168-0.45,5.685,5.685,0,0,1,.931-0.96,34.26,34.26,0,0,1,3.051-2.02,9.147,9.147,0,0,1,3.753-1.13,1.822,1.822,0,0,1,1.92,2.61c-0.137.3,0.091,0.23,0.1,0.32a5.514,5.514,0,0,1-.006,1.31,4.676,4.676,0,0,1-1.029,2.13c-0.285.34-.535,0.71-0.8,1.07a1.08,1.08,0,0,1-.163.23c-0.786.52-1.543,1.1-2.374,1.55-0.951.5-1.97,0.87-2.952,1.32a7.438,7.438,0,0,0-.84.5c1.05,2.07,2.082,4.12,3.131,6.15a0.807,0.807,0,0,0,.4.19,9.853,9.853,0,0,1,2.5-3.12,12.369,12.369,0,0,1,2.258-1.27c0.643-.25,1.491-0.33,1.837-1.19a1.024,1.024,0,0,1,1.313-.18,3.735,3.735,0,0,1,1.5,2.54c0.049,0.43.1,0.86,0.114,1.3a5.461,5.461,0,0,1-.874,3.21,9.5,9.5,0,0,1-1.854,2.22,5.722,5.722,0,0,1-2.7,1.64,2.663,2.663,0,0,0-.642.35,39.222,39.222,0,0,0,5.156,6.11,2.746,2.746,0,0,0,.462-0.75,12.223,12.223,0,0,1,1.019-2.62,5.886,5.886,0,0,1,2.423-2.68,8.892,8.892,0,0,1,1-.49,1.8,1.8,0,0,0,.486-0.29,0.89,0.89,0,0,1,.747-0.5,10.014,10.014,0,0,1,1.752.37,0.833,0.833,0,0,1,.5,1.04,1.613,1.613,0,0,0,.138,1.17,2.712,2.712,0,0,1,.1,1.84c-0.2.62-.216,1.31-0.47,1.9-0.188.44-.765,0.71-0.922,1.15a2.776,2.776,0,0,1-.643,1.24c-0.775.69-1.609,1.31-2.433,1.93a1.435,1.435,0,0,1-.515.15,0.934,0.934,0,0,0,.476.98,14.945,14.945,0,0,0,3.9,3.16,2.778,2.778,0,0,0,.616.26,1.045,1.045,0,0,1,.785.81h0.991c0.043-.3.133-0.68,0.156-1.07a9.712,9.712,0,0,1,3.182-6.65,1.781,1.781,0,0,1,.207-0.2c0.6-.41.594-0.4,0.387-1.14a3.984,3.984,0,0,1-.064-0.49,1.848,1.848,0,0,1,2.244.31,5.992,5.992,0,0,1,2.251,3.48,5.548,5.548,0,0,1-.524,4.16c-0.379.58-.669,1.22-1.031,1.81a2.586,2.586,0,0,1-.517.5,0.762,0.762,0,0,0-.27.25c-0.07.96-.941,1.37-1.4,2.05a0.662,0.662,0,0,0,0,.18c0.2,0.12.442,0.25,0.675,0.39a3.37,3.37,0,0,1,.615.42,0.732,0.732,0,0,0,.707.35,0.878,0.878,0,0,1,.548.35,12.838,12.838,0,0,0,3.114,1.91c1.2,0.72,2.691.79,3.732,1.8a0.623,0.623,0,0,0,.428.17,0.629,0.629,0,0,1,.633.6,2.43,2.43,0,0,1,.861.1c1.4,0.77,2.786,1.59,4.153,2.38,0.079,0.67.281,1.3-.435,1.67a1.394,1.394,0,0,1-1.564-.37,38.613,38.613,0,0,0-5.107-2.9,9.946,9.946,0,0,0-2.441-.99,0.868,0.868,0,0,1-.319-0.17c-0.543-.38-0.731-0.29-0.838.35-0.069.42-.2,0.82-0.286,1.2-0.763-.05-1.406-0.1-2.037-0.15a3.532,3.532,0,0,1-1.872,1.47,5.016,5.016,0,0,0-.846.43,14.282,14.282,0,0,1-3.437,1.32,31.287,31.287,0,0,1-3.793.69,13.993,13.993,0,0,1-2.329.06,1.036,1.036,0,0,0-.44.05,1,1,0,0,1-1.09-.13c-0.214.26-.41,0.5-0.627,0.76a1.23,1.23,0,0,1-1.085-1.24,6.875,6.875,0,0,1-.221-1.66,0.988,0.988,0,0,1,.931-0.91,2.239,2.239,0,0,0,1.71-1.06,17.8,17.8,0,0,1,4.035-3.18,7.881,7.881,0,0,1,3.9-1.09,26.01,26.01,0,0,1,3.423.41,0.928,0.928,0,0,0-.18-0.27,3.314,3.314,0,0,1-1.213-.7c-0.3-.48-0.881-0.3-1.154-0.72a0.885,0.885,0,0,0-.531-0.12,2.128,2.128,0,0,1-1.4-.82,7.3,7.3,0,0,0-1.481-1.34,22.326,22.326,0,0,0-2.358-1.23,2.626,2.626,0,0,0-.6-0.13,1.553,1.553,0,0,1-1.233,1.4,4.143,4.143,0,0,0-1.1.89c-0.48.39-.859,1-1.633,0.78a1.266,1.266,0,0,1-.841.58,29.263,29.263,0,0,1-4.515,1.13,24.4,24.4,0,0,1-3.827.19,14.467,14.467,0,0,1-2.538-.28c-1.524-.36-1.749-0.51-2.356-2,0.126-.24.248-0.48,0.387-0.72a1.082,1.082,0,0,1,1.139-.78,0.682,0.682,0,0,0,.509-0.17,21.687,21.687,0,0,1,4.263-2.98,8.267,8.267,0,0,1,3.132-1c0.625-.06,1.256-0.07,1.882-0.12a5.806,5.806,0,0,1,2.331.41,4.207,4.207,0,0,0,.94.08,4.778,4.778,0,0,0-1.861-1.89,3.931,3.931,0,0,0-1.522-.52,0.826,0.826,0,0,1-.766-0.79c0.053-1.66-1.3-2.33-2.106-3.44a2.659,2.659,0,0,0-.57.38,0.632,0.632,0,0,1-1,.05,1.009,1.009,0,0,0-.624-0.31,1.488,1.488,0,0,0-.872.62c-0.167.46-.45,0.35-0.746,0.33-0.275.45-.359,1.15-1.156,0.8a0.312,0.312,0,0,0-.252.11,3.138,3.138,0,0,1-2.319.87,29.4,29.4,0,0,1-4.592.25,11.68,11.68,0,0,1-2.535-.63,2.943,2.943,0,0,0-.656-0.1,5.573,5.573,0,0,1-2.5-.9c-0.981.37-.981,0.37-1.581-0.56,0.07-.36.126-0.71,0.205-1.04a2.456,2.456,0,0,1,.718-1.4c0.946-.84,1.766-1.83,2.761-2.61a13.262,13.262,0,0,1,3.057-1.85,5.686,5.686,0,0,1,4.063-.06,1.63,1.63,0,0,0,.343.14,5.351,5.351,0,0,1,3.077,1.31,9.247,9.247,0,0,0,1.973,1.01c-0.62-1.44-1.381-2.72-3.086-2.94-0.12-.5-0.55-0.88-0.127-1.37a0.522,0.522,0,0,0-.051-0.45c-0.726-1.21-1.467-2.42-2.165-3.56-0.462.08-.9,0.15-1.464,0.25a7.968,7.968,0,0,1-5.705,2.23c-1.415,0-2.826-.29-4.242-0.39a6.67,6.67,0,0,1-1.988-.43,7.178,7.178,0,0,1-3.051-1.81,2.433,2.433,0,0,1-.28-3.28,6.784,6.784,0,0,1,1.417-1.51,8.168,8.168,0,0,1,4.78-2.21,7.538,7.538,0,0,1,2.172.11,8.917,8.917,0,0,1,3.017,1.16C851.943,4754.61,853.03,4755.3,854.117,4756Zm43.677-99.72a3.875,3.875,0,0,1,.485-0.17c0.975-.16,1.949-0.28,2.917-0.51a8.152,8.152,0,0,0,3.732-1.89,4.684,4.684,0,0,0,1.736-3.84,2.075,2.075,0,0,0-1.738-.32,1.035,1.035,0,0,1-.551-0.09,5.207,5.207,0,0,0-2.849-.07,7.579,7.579,0,0,1-1.606.49c-1.017.04-1.263,1.11-2.081,1.37,0.111,0.82-.662,1.24-0.879,1.91-0.279.88-.721,1.77,0.18,2.56C897.367,4655.92,897.6,4656.12,897.794,4656.28Zm-54.327,62.41c0.23-.04.665-0.09,1.093-0.18a0.525,0.525,0,0,0,.462-0.62,2.3,2.3,0,0,0-.431-1.3,19.38,19.38,0,0,1-2.1-2.44,4.85,4.85,0,0,0-.734-0.86,6.852,6.852,0,0,0-2.361-1.24,3.641,3.641,0,0,0-2.009.19,14.811,14.811,0,0,0-2.385,1.37c-0.641.4-.718,0.95-0.087,1.34a11.047,11.047,0,0,1,1.259,1.11,9.688,9.688,0,0,0,1.411,1.12A13.132,13.132,0,0,0,843.467,4718.69Zm4.9,52.23a5.27,5.27,0,0,0,.961.54c0.69,0.23,1.406.39,2.106,0.6a9.748,9.748,0,0,0,3.473.47c0.829-.05,1.656-0.18,2.484-0.18a7.38,7.38,0,0,0,2.469-.58,1.323,1.323,0,0,0,1.09-1.02,1.786,1.786,0,0,0-.579-0.74c-1.092-.3-1.982-1.01-3.027-1.37a17.6,17.6,0,0,0-2.8-.84,3.567,3.567,0,0,0-2.676.28A13.979,13.979,0,0,0,848.363,4770.92Zm1.1-10.8c0.889-.21,1.837-0.42,2.779-0.65a3.89,3.89,0,0,0,.812-0.29,0.485,0.485,0,0,0,.117-0.9,7.816,7.816,0,0,0-1.451-1.03c-1.213-.59-2.407-1.22-3.67-1.71a5.318,5.318,0,0,0-3.654-.26,5.557,5.557,0,0,0-2.748,1.64c-0.432.52-.469,0.88,0.076,1.26a5.547,5.547,0,0,0,2.018,1.04C845.6,4759.61,847.485,4759.82,849.465,4760.12Zm-4.006-28.03a10.2,10.2,0,0,0-3.163-3.13,8.214,8.214,0,0,0-3.866-1.41,10.965,10.965,0,0,0-4.215.61,4.5,4.5,0,0,0,2.137,2.25,25.728,25.728,0,0,0,3.755,1.54,7.741,7.741,0,0,0,1.844.41,19.072,19.072,0,0,0,2.391.03A5.968,5.968,0,0,0,845.459,4732.09Zm10.437-49.45a2.214,2.214,0,0,0,.082-0.75c-0.4-1.54-.451-3.15-1.3-4.59a5.178,5.178,0,0,0-2.6-2.18,6.246,6.246,0,0,0-2.133-.15,0.46,0.46,0,0,0-.478.65c0.434,1.45.675,2.98,1.779,4.14,0.566,0.6,1.146,1.18,1.707,1.79a6.3,6.3,0,0,0,1.508,1.06A1.211,1.211,0,0,0,855.9,4682.64Zm-7.623,61.64c-0.845-.62-1.541-1.14-2.262-1.63a1.978,1.978,0,0,0-.694-0.21,1.39,1.39,0,0,1-.421-0.05,8.88,8.88,0,0,0-3.254-1.25,6.676,6.676,0,0,0-2.679.09,6.866,6.866,0,0,0-2.637,1.52,2.032,2.032,0,0,0,.462.48c0.655,0.32,1.324.61,2,.89a0.826,0.826,0,0,1,.677.52,5.794,5.794,0,0,1,1.061-.14c1.227,0.08,2.449.27,3.676,0.3,1.109,0.03,2.22-.09,3.33-0.17A3.167,3.167,0,0,0,848.273,4744.28Zm-6.412-57.77a3.236,3.236,0,0,0,.3,1.26A11.12,11.12,0,0,0,844,4690.1c1.432,1.04,2.644,2.38,4.332,3.07a1.07,1.07,0,0,0,1.446-.07,8.756,8.756,0,0,0-1.2-3.5c-0.269-.45-0.61-0.85-0.862-1.3a3.7,3.7,0,0,0-2.507-1.74A15.367,15.367,0,0,0,841.861,4686.51Zm-5.571,13.91a3.515,3.515,0,0,0,.643.67,13.513,13.513,0,0,0,2.3,1.3c1.65,0.65,3.332,1.23,5.031,1.73a5.36,5.36,0,0,0,2.348.28,4.424,4.424,0,0,0-1.191-2.17,15.95,15.95,0,0,0-1.392-1.28A5.8,5.8,0,0,0,836.29,4700.42Zm35.168,80.87a9.734,9.734,0,0,0-5.5-.99,11.454,11.454,0,0,0-5.664,2.9,1.689,1.689,0,0,0,.637.28c1.172-.03,2.344-0.09,3.514-0.16a9.951,9.951,0,0,1,1.311-.17,10.316,10.316,0,0,0,3.124-.59A6.737,6.737,0,0,0,871.458,4781.29Zm2.313-118.1a5.067,5.067,0,0,1,.093-0.97,9.9,9.9,0,0,0,.359-4.78,3.327,3.327,0,0,0-.979-1.91c-0.731-.67-1.317-0.62-1.7.18a6.639,6.639,0,0,0-.722,2.23,6.051,6.051,0,0,0,.373,2.82c0.327,0.77.664,1.55,1.059,2.29a0.723,0.723,0,0,0,1.115.31C873.51,4663.3,873.648,4663.24,873.771,4663.19ZM861.3,4744.48a20.949,20.949,0,0,0-2.45,1.07,7.557,7.557,0,0,0-2.881,2.24,4.415,4.415,0,0,1-.694.76c-0.865.87-.929,1.23-0.46,2.5a4.288,4.288,0,0,0,1.453-.24,19.735,19.735,0,0,0,3.943-2.59A3.543,3.543,0,0,0,861.3,4744.48Zm22.711,28.9a2.171,2.171,0,0,0-1.67,1.41,2.169,2.169,0,0,1-.4.53,3.469,3.469,0,0,0-.9,1.17,5.573,5.573,0,0,0-.439,2.11,1.229,1.229,0,0,1-.134.84,2.459,2.459,0,0,0-.076,1.54,0.951,0.951,0,0,0,.506.73,1.273,1.273,0,0,0,.8-0.31,4.7,4.7,0,0,0,1.567-2.04,7.552,7.552,0,0,0,1.24-3.63A3.566,3.566,0,0,0,884.015,4773.38Zm-17.954-16.42c-0.219.02-.44,0.02-0.655,0.05a6.518,6.518,0,0,0-1.83.98,7.089,7.089,0,0,0-2.836,3.36,1.479,1.479,0,0,0-.012,1.29c0.248,0.66.52,0.83,1.17,0.57a16.011,16.011,0,0,0,1.653-.88,1.415,1.415,0,0,0,.55-0.25,1.728,1.728,0,0,1,.827-0.83c0.282-.2.274-0.75,0.773-0.82a0.6,0.6,0,0,0,.062-0.22l0.244-.79A2.7,2.7,0,0,0,866.061,4756.96Zm17.86,32.18c-2.027-.71-3.951-1.17-6-0.52a10.21,10.21,0,0,0-4.613,3.22,12.865,12.865,0,0,0,4.908-.47A16.6,16.6,0,0,0,883.921,4789.14Zm-0.972-131.7a1.923,1.923,0,0,0,1.5.07c0.617-.17.625-0.11,0.563-0.73a0.668,0.668,0,0,1,.13-0.41,6.508,6.508,0,0,0,1.019-3.5,2.261,2.261,0,0,0-.247-1.09,3.235,3.235,0,0,0-1.656-1.63A7.732,7.732,0,0,0,882.949,4657.44Zm-20.572,6.18a3.071,3.071,0,0,0-1.039,2.48,8.079,8.079,0,0,0,.91,4.29,2.948,2.948,0,0,0,1.4,1.6,4.968,4.968,0,0,0,.346-0.98c0.119-.96.214-1.93,0.266-2.9,0.029-.55-0.056-1.11-0.074-1.67a3.028,3.028,0,0,0-.583-1.54A4.708,4.708,0,0,0,862.377,4663.62Zm7.336,109.76a2.3,2.3,0,0,0,.307-0.05,11.355,11.355,0,0,0,3.4-2.83,5.171,5.171,0,0,0,1.021-2.93c0.074-.85-0.4-1.15-1.175-0.77a1.628,1.628,0,0,0-.459.31,10.538,10.538,0,0,0-1.8,2.06,27.651,27.651,0,0,0-1.346,3.7A1.382,1.382,0,0,0,869.713,4773.38Zm-11.052-72.76a8.065,8.065,0,0,0-6.7.5c-0.076.39-.153,0.78-0.258,1.32,1.175,0.09,2.27.2,3.368,0.23a3.189,3.189,0,0,0,.942-0.3,0.707,0.707,0,0,1,.436-0.08c0.429,0.48.787-.05,1.016-0.17a4.946,4.946,0,0,0,1.117-1.12A1.14,1.14,0,0,0,858.661,4700.62Zm3.624-8.38c-0.349-.24-0.619-0.46-0.916-0.63a5.6,5.6,0,0,0-1.7-.84,9.2,9.2,0,0,0-2.878-.31,0.861,0.861,0,0,0-.938.82,2.863,2.863,0,0,0,1.013,1.04,7.464,7.464,0,0,1,1.783.79,3.716,3.716,0,0,0,2.537.18A1.507,1.507,0,0,0,862.285,4692.24Zm6.053-8.6a4.569,4.569,0,0,0-.595-0.58,8.705,8.705,0,0,0-3.99-1.86,3.576,3.576,0,0,0-2.181.44c0.235,0.32.412,0.58,0.608,0.82a1.359,1.359,0,0,0,.45.46,21.532,21.532,0,0,0,3.492,1.39A2.06,2.06,0,0,0,868.338,4683.64Zm-18.718,29.45a11.654,11.654,0,0,0,3.452-.28,4.24,4.24,0,0,0,2.44-1.32,0.722,0.722,0,0,0-.011-1.09,2.722,2.722,0,0,1-.472.07,13.265,13.265,0,0,0-4.672,1.23C849.587,4712.02,849.542,4712.18,849.62,4713.09Zm36.589-45.03c-0.38-1.98-2.373-2.18-3.29-3.42-1.04-.01-2-0.69-3.2-0.36a14.272,14.272,0,0,0,4.915,3.49A6.442,6.442,0,0,0,886.209,4668.06Zm-32.088,68.49c1.352-.6,2.517-1.12,3.707-1.65,0.047-.22.1-0.49,0.159-0.76-1.888-.73-6.052.81-6.462,2.57C852.457,4737.06,853.348,4736.08,854.121,4736.55Zm-4.633-10.66a2.357,2.357,0,0,0,.729.13,16.841,16.841,0,0,0,3.492-.86c0.911-.4,1.982-0.88,2.213-2.1C854.178,4722.66,850.624,4724.19,849.488,4725.89Zm21.259-53.17a8.085,8.085,0,0,0,2.892,1.61,16.2,16.2,0,0,0,2.5.58,0.665,0.665,0,0,0,.958-0.57A8.836,8.836,0,0,0,870.747,4672.72Zm26.112-10.13a6.793,6.793,0,0,0-5.4-2.79A9.728,9.728,0,0,0,896.859,4662.59Z" transform="translate(-831.156 -4647.19)"/>
</svg>
