<svg xmlns="http://www.w3.org/2000/svg" xmlns:xlink="http://www.w3.org/1999/xlink" width="78" height="148" viewBox="0 0 78 148">
  <metadata><?xpacket begin="﻿" id="W5M0MpCehiHzreSzNTczkc9d"?>
<x:xmpmeta xmlns:x="adobe:ns:meta/" x:xmptk="Adobe XMP Core 5.6-c138 79.159824, 2016/09/14-01:09:01        ">
   <rdf:RDF xmlns:rdf="http://www.w3.org/1999/02/22-rdf-syntax-ns#">
      <rdf:Description rdf:about=""/>
   </rdf:RDF>
</x:xmpmeta>
                                                                                                    
                                                                                                    
                                                                                                    
                                                                                                    
                                                                                                    
                                                                                                    
                                                                                                    
                                                                                                    
                                                                                                    
                                                                                                    
                                                                                                    
                                                                                                    
                                                                                                    
                                                                                                    
                                                                                                    
                                                                                                    
                                                                                                    
                                                                                                    
                                                                                                    
                                                                                                    
                           
<?xpacket end="w"?></metadata>
<defs>
    <style>
      .cls-1 {
        fill: #938a71;
        fill-rule: evenodd;
        filter: url(#filter);
      }
    </style>
    <filter id="filter" x="1994" y="4647" width="78" height="148" filterUnits="userSpaceOnUse">
      <feFlood result="flood" flood-color="#fff"/>
      <feComposite result="composite" operator="in" in2="SourceGraphic"/>
      <feBlend result="blend" in2="SourceGraphic"/>
    </filter>
  </defs>
  <path id="Shape_4_copy" data-name="Shape 4 copy" class="cls-1" d="M2048.96,4755.95a3.722,3.722,0,0,1,1.35-2.72,1.336,1.336,0,0,0,.54-1.13,14.825,14.825,0,0,1,.42-2.25c0.22-1.1.44-2.2,0.64-3.21a11.7,11.7,0,0,1,1.25-.55,1.28,1.28,0,0,1,.7-0.02,14.051,14.051,0,0,0,5.46,1.02,24.6,24.6,0,0,0,4.2-.31,10.3,10.3,0,0,0,4.35-1.67c-0.06-.1-0.12-0.2-0.18-0.31a0.585,0.585,0,0,1,.15-0.06,0.846,0.846,0,0,0,.44.02,2.829,2.829,0,0,0,1.03-1.52,1,1,0,0,0-.71-1.4,2.427,2.427,0,0,1-.71-0.61,3.667,3.667,0,0,0-1.7-1.31,0.66,0.66,0,0,1-.27-0.12c-1.12-.82-2.52-0.87-3.78-1.27a2.365,2.365,0,0,0-1.06-.03,11.4,11.4,0,0,0-5.75,2.46,10.279,10.279,0,0,1-1.58.87,4.994,4.994,0,0,1,1.18-3.33c0.64-.61.64-0.62,0.23-1.35a1.144,1.144,0,0,1-.16-1.16,4.634,4.634,0,0,0,.18-1.2c1.1,0.27,1.2.22,1.79-.99,0.69,0.64,1.68.27,2.42,0.78,1.07-.4,2.23.16,3.33-0.4a9.813,9.813,0,0,1,2.29-.52,10.934,10.934,0,0,0,4.75-2.76,8.8,8.8,0,0,0,1.48-2.03,2.345,2.345,0,0,0-.68-2.8,0.544,0.544,0,0,0-.52-0.06,1.181,1.181,0,0,1-1.08-.08,13.618,13.618,0,0,0-4.72-.81c-2.36.03-4.2,1.13-6.02,2.38a4.427,4.427,0,0,0-.84,1.01c-0.18.22-.35,0.45-0.52,0.68-0.25.32-.49,0.64-0.76,0.94a3.028,3.028,0,0,1-.54.37,3.183,3.183,0,0,1,.01-0.64,4.006,4.006,0,0,0,.23-0.72,4.707,4.707,0,0,1,.61-2.24,2,2,0,0,0,.08-1.29,31.03,31.03,0,0,1-.07-3.61,1.232,1.232,0,0,1,.2-0.82,1.348,1.348,0,0,0,.17-1.37,2.2,2.2,0,0,1,.8.14,2.486,2.486,0,0,0,1.68.53,1.405,1.405,0,0,1,.64.12,1.661,1.661,0,0,0,1.43.04,9.222,9.222,0,0,1,2.06-.24,1.518,1.518,0,0,0,.38-0.05c1.2-.52,2.57-0.71,3.64-1.52a21.386,21.386,0,0,0,2.43-2.14,9.7,9.7,0,0,0,2-2.94,1.642,1.642,0,0,0-.33-1.89,0.95,0.95,0,0,0-1.55.16,1.813,1.813,0,0,0-.19.3c-0.89-.53-1.67-1.01-2.47-1.46-0.23-.13-0.53-0.12-0.78-0.23-0.12-.05-0.18-0.28-0.3-0.33a5.3,5.3,0,0,0-6.89,1.57,41.6,41.6,0,0,0-2.58,3.36,3.205,3.205,0,0,1-.42.59,4.558,4.558,0,0,1,.02-1.91,2.47,2.47,0,0,0-.22-2.44,6,6,0,0,1-.85-2.41,2.243,2.243,0,0,0-.33-1.04,0.5,0.5,0,0,1,.01-0.81,1.728,1.728,0,0,1,1.67-.82,7.8,7.8,0,0,0,3.43-.36,22.357,22.357,0,0,0,5.76-1.94,9.12,9.12,0,0,0,3.09-2.32,2.325,2.325,0,0,0-.21-3.42c-0.29.12-.6,0.26-0.95,0.4a6.633,6.633,0,0,0-4.54-1.93,6.867,6.867,0,0,0-4.44,1.12,10,10,0,0,0-4.22,4.8,1.959,1.959,0,0,1-.27.33,0.852,0.852,0,0,1-.13-0.28,1.869,1.869,0,0,0-.37-1.95,9.984,9.984,0,0,1-1.27-3.42c0.53-.06,1.06-0.09.97-0.77a1.306,1.306,0,0,0-.12-0.44,1.249,1.249,0,0,1-.18-1.18c0.12,0.05.22,0.08,0.32,0.13,0.46,0.23.7-.4,1.22-0.25a2.591,2.591,0,0,0,1.38-.26c0.44-.16.83-0.46,1.27-0.62a18.787,18.787,0,0,0,2.59-1.68,9.535,9.535,0,0,0,2.15-2.27,7.72,7.72,0,0,0,.69-1.06,8.042,8.042,0,0,0,.83-3.29,1.747,1.747,0,0,0-1.44-1.91c-0.12-.04-0.25-0.07-0.45-0.12a2.148,2.148,0,0,1-1.77.58,18.294,18.294,0,0,0-3.78.5,5.425,5.425,0,0,0-3.25,2.68,12.976,12.976,0,0,0-1.73,4.03c-0.1.53-.2,1.05-0.31,1.6a0.759,0.759,0,0,1-.25-0.02,4.957,4.957,0,0,1-.57-1.87,2.772,2.772,0,0,0-1-2.43,4.608,4.608,0,0,1-1.4-2.5,6.7,6.7,0,0,0-.43-1.04c-0.2-.55-0.13-0.67.47-0.69a6.387,6.387,0,0,0,4.84-2.57c0.77-.93,1.48-1.9,2.17-2.88a3.127,3.127,0,0,0,.42-1.05c0.2-.85.35-1.72,0.53-2.59a1.173,1.173,0,0,1,.05-0.27c0.66-1.24-.32-1.99-0.91-2.83a2.169,2.169,0,0,0-.89-0.4,1.684,1.684,0,0,1-1.79.74,6.7,6.7,0,0,0-5.79,2.92,0.729,0.729,0,0,0-.17.34c-0.07,1.04-.83,1.83-0.98,2.84-0.13.95-.23,1.91-0.37,3.05a3.567,3.567,0,0,1-.58-0.79,7.909,7.909,0,0,0-1.77-2.36c-0.71-.81-1.44-1.6-2.15-2.41a0.4,0.4,0,0,1-.14-0.24,7.084,7.084,0,0,1,.16-2.02,4.72,4.72,0,0,1,1.11-1.37c0.09-.11.35-0.1,0.41-0.21a13.8,13.8,0,0,0,1.05-1.97,19.236,19.236,0,0,0,.76-2.59,5.544,5.544,0,0,0,.03-1.95,5.949,5.949,0,0,0-1.1-2.87,2.9,2.9,0,0,1-.2-0.82,1.356,1.356,0,0,0-1.75-.99,14.318,14.318,0,0,0-1.63.78,3.925,3.925,0,0,0-2,2.63,10.948,10.948,0,0,0-.04,5.98c0.2,0.71.35,1.44,0.52,2.16-0.07.04-.13,0.08-0.2,0.12-0.43-.43-0.87-0.87-1.3-1.31-1.51-1.55-3.01-3.11-4.52-4.66a1.208,1.208,0,0,1-.48-1.25,1.875,1.875,0,0,0-.3-0.78,6.3,6.3,0,0,0,2.76-3.46c0.2-.59.68-1.11,0.36-1.8a1.319,1.319,0,0,0,.33-1.33,14.377,14.377,0,0,0-.67-2.95,5.273,5.273,0,0,0-2.24-2.79,8.129,8.129,0,0,0-.89.17,4.641,4.641,0,0,0-3.66,3.46,9.044,9.044,0,0,0,.17,4.84c0.17,0.54.35,1.08,0.51,1.63a3.164,3.164,0,0,1,0,.62c-0.26-.12-0.43-0.18-0.59-0.27-1.06-.64-2.09-1.34-3.19-1.91a19.692,19.692,0,0,0-2.15-.79c-0.55-.22-1.09-0.5-1.76-0.81,0.45-.42.8-0.74,1.16-1.05a4.14,4.14,0,0,0,1.24-3.42c0-.06-0.1-0.14-0.08-0.17,0.51-.91.01-1.72-0.28-2.54-0.36-1-.5-2.09-1.43-2.85a2.759,2.759,0,0,1-.36-1.33,3.51,3.51,0,0,0-3.33.53,4.876,4.876,0,0,0-1.96,2.29,2.672,2.672,0,0,0-.19,1.17,7.636,7.636,0,0,0,1.43,4.7,10.289,10.289,0,0,1,.6,1.03,8.787,8.787,0,0,1-.96-0.32c-1.3-.67-2.57-1.38-3.89-2a22.42,22.42,0,0,0-2.73-1.02,0.81,0.81,0,0,1-.74-1.01,6.075,6.075,0,0,0-1.3-3.31,16.486,16.486,0,0,0-1.66-1.9,1.155,1.155,0,0,0-1.3-.54,0.986,0.986,0,0,1-.59-0.29c-0.92-.7-2.01-0.46-3.03-0.49a5.5,5.5,0,0,0-3.1.63,4.163,4.163,0,0,1-1.65.14,1.838,1.838,0,0,0-1.47,1.23,2.572,2.572,0,0,0,.09,1.64c0.11,0.22.01,0.55,0.1,0.81,0.23,0.7.48,1.4,0.78,2.08a2.024,2.024,0,0,0,.49,1.12,1.081,1.081,0,0,1,.79.83c0.81,0.08,1.04,1.15,1.92,1.09,1.4,1.05,3.1,1.08,4.73,1.26a7.861,7.861,0,0,0,3.59-.31c0.59-.21,1.23-0.32,1.84-0.48a0.74,0.74,0,0,0,.37-0.1c0.72-.97,1.43-0.16,2.11.05a7.343,7.343,0,0,1,1.41.82,0.575,0.575,0,0,1-.66.37,5.279,5.279,0,0,0-3.13.65,7.876,7.876,0,0,0-1.48.59,17.244,17.244,0,0,0-1.89,1.74c-0.31.38-.69,0.73-0.97,1.14a1.187,1.187,0,0,0-.14.81,1.862,1.862,0,0,0,2.14,1.3,6.778,6.778,0,0,0,2.58-1.02,3.113,3.113,0,0,1,1.06-.43,8.62,8.62,0,0,0,3.92-2.94,4.528,4.528,0,0,0,.53-1.08c2.43,0.75,4.54,2.13,6.94,2.98a0.709,0.709,0,0,1-.6.5,3.1,3.1,0,0,0-1.64.72,6.9,6.9,0,0,0-2.95,2.84c-0.37.83-1.05,1.53-1.45,2.37a3.563,3.563,0,0,0-.03,1.42,2.881,2.881,0,0,0,2.88.33,14.262,14.262,0,0,0,3.09-1.24,11.118,11.118,0,0,0,3.89-3.22,13.383,13.383,0,0,0,.74-1.37c0.63-.16,1.04.44,1.48,0.76a30.242,30.242,0,0,1,2.82,2.49c0.37,0.35.66,0.77,1.01,1.15,0.4,0.44.82,0.86,1.33,1.39-0.66.09-1.2,0.19-1.74,0.22a8.407,8.407,0,0,0-5.29,2.32,5.672,5.672,0,0,0-1.25,1.7,3.1,3.1,0,0,0-.05,1.49,0.859,0.859,0,0,0,.48.4,6.507,6.507,0,0,1,1.28.48,2.9,2.9,0,0,0,2.82.16,19.226,19.226,0,0,0,2.16-.64,9.022,9.022,0,0,0,2.88-1.66,7.358,7.358,0,0,1,1.22-1.01,0.843,0.843,0,0,1,.71-0.04,3.756,3.756,0,0,1,.85.75c0.8,0.89,1.61,1.78,2.39,2.68,0.42,0.5.8,1.04,1.26,1.64a3.817,3.817,0,0,1-.55.24c-0.62.17-1.27,0.26-1.87,0.47a9.947,9.947,0,0,0-1.7.84,6.284,6.284,0,0,0-1.34,1.05,1.527,1.527,0,0,1-1.52.57,13.777,13.777,0,0,0-.63,2.29,6.052,6.052,0,0,0,.36,1.68,1.677,1.677,0,0,1,1.96.47,3.338,3.338,0,0,0,2.63.43,6.085,6.085,0,0,0,3.15-1.28c0.61-.46,1.26-0.86,1.86-1.33a8.8,8.8,0,0,0,.96-1.02c1.14,1.66,2.43,3.03,3,4.94a2.921,2.921,0,0,1-.64.15,10.051,10.051,0,0,0-3.17.64,3.48,3.48,0,0,0-1.25.75,2.194,2.194,0,0,1-1.5.58,0.647,0.647,0,0,0-.79.74,2.14,2.14,0,0,1-.42,1.22,1.113,1.113,0,0,0,.74,1.68,2.475,2.475,0,0,1,.7.41,11.808,11.808,0,0,0,1.39,1.13,4.4,4.4,0,0,0,3.98-.2c1.12-.49,2.17-1.13,3.29-1.72a14.34,14.34,0,0,1,2.04,5.08,13.855,13.855,0,0,0-8.99.94c0.11,0.86.21,1.61,1.15,1.76a3.084,3.084,0,0,0,2.55,3.04c0.69,0.14,1.37.38,2.07,0.51a5.9,5.9,0,0,0,1.62.15c1.03-.07,2.06-0.25,3.18-0.39a34.854,34.854,0,0,1,1.21,4.64c-0.72-.24-1.37-0.17-2.04-0.45a8.532,8.532,0,0,0-2.5-.32c-0.7-.05-1.39-0.05-2.09-0.1a1.472,1.472,0,0,0-1.54,2.08,6.327,6.327,0,0,0,.67,1.96c0.16,0.19.09,0.57,0.25,0.76a5.925,5.925,0,0,0,1.14,1.04c1.98,1.37,4.62,1.28,7.03,1.1a9.444,9.444,0,0,0-.08,2.59,17.573,17.573,0,0,1,.09,2.5c0.09,0.88.12,1.76,0.19,2.79a5.551,5.551,0,0,1-.63-0.28c-0.76-.47-1.51-0.96-2.27-1.43a0.864,0.864,0,0,0-.36-0.13,15.836,15.836,0,0,0-3.88-.52,1.211,1.211,0,0,1-.66-0.07,0.9,0.9,0,0,0-1.05.15,2.369,2.369,0,0,0-1.29,2.22,3.334,3.334,0,0,1,1.36,1.63,5.86,5.86,0,0,0,3.18,2.51,20.148,20.148,0,0,0,5.04,1.11,7.179,7.179,0,0,1-.26,1.81c-0.35.83-.08,1.67-0.25,2.49a2.467,2.467,0,0,0,.1.7,1.377,1.377,0,0,1-.09.39c-0.06.35-.12,0.7-0.21,1.23a6.443,6.443,0,0,0-3.28-2.22,7.689,7.689,0,0,0-4.52-.57,1.485,1.485,0,0,1-1.47-.14,1.422,1.422,0,0,0-1.05.36,1.239,1.239,0,0,0-.44.9,3.2,3.2,0,0,0,.63,1.92,9.064,9.064,0,0,0,6.75,3.43,21.328,21.328,0,0,1,2.37.49,23.5,23.5,0,0,1-1.18,3.94c-0.37,1.28-.75,2.55-1.13,3.82l-0.27.18a1.277,1.277,0,0,0-.17-0.45,5.641,5.641,0,0,0-.93-0.96,36.03,36.03,0,0,0-3.06-2.03,9.227,9.227,0,0,0-3.77-1.13,1.828,1.828,0,0,0-1.93,2.61c0.14,0.31-.09.23-0.09,0.32a5.3,5.3,0,0,0,0,1.32,4.66,4.66,0,0,0,1.03,2.13c0.29,0.34.54,0.71,0.81,1.07a0.785,0.785,0,0,0,.16.23,27.669,27.669,0,0,0,2.38,1.55c0.96,0.51,1.98.88,2.96,1.32a9.453,9.453,0,0,1,.85.51c-1.06,2.07-2.09,4.12-3.14,6.16a0.994,0.994,0,0,1-.4.19,9.782,9.782,0,0,0-2.51-3.13,12.509,12.509,0,0,0-2.27-1.27c-0.64-.25-1.49-0.33-1.84-1.19a1.011,1.011,0,0,0-1.32-.18,3.719,3.719,0,0,0-1.51,2.54c-0.05.43-.09,0.87-0.11,1.3a5.45,5.45,0,0,0,.87,3.21,9.434,9.434,0,0,0,1.87,2.23,5.7,5.7,0,0,0,2.71,1.64,2.375,2.375,0,0,1,.64.36,38.828,38.828,0,0,1-5.17,6.11,2.66,2.66,0,0,1-.46-0.75,12.386,12.386,0,0,0-1.03-2.63,5.907,5.907,0,0,0-2.43-2.68,8.515,8.515,0,0,0-1.01-.48,1.947,1.947,0,0,1-.48-0.3,0.866,0.866,0,0,0-.75-0.49,9.8,9.8,0,0,0-1.76.36,0.826,0.826,0,0,0-.5,1.04,1.669,1.669,0,0,1-.14,1.17,2.674,2.674,0,0,0-.1,1.85c0.2,0.62.22,1.3,0.47,1.9,0.19,0.43.77,0.71,0.93,1.15a2.723,2.723,0,0,0,.64,1.24c0.78,0.69,1.62,1.31,2.44,1.94a1.482,1.482,0,0,0,.52.14,0.933,0.933,0,0,1-.48.99,14.926,14.926,0,0,1-3.91,3.16,2.808,2.808,0,0,1-.62.26,1.052,1.052,0,0,0-.79.81h-0.99a9.055,9.055,0,0,1-.16-1.07,9.686,9.686,0,0,0-3.19-6.66,1.9,1.9,0,0,0-.21-0.19c-0.6-.42-0.6-0.41-0.39-1.15,0.04-.16.04-0.32,0.07-0.49a1.87,1.87,0,0,0-2.26.31,6.047,6.047,0,0,0-2.26,3.48,5.572,5.572,0,0,0,.53,4.17c0.38,0.58.67,1.22,1.04,1.81a2.687,2.687,0,0,0,.51.5,0.616,0.616,0,0,1,.27.26c0.08,0.95.95,1.36,1.41,2.05a0.814,0.814,0,0,1,0,.17c-0.2.12-.44,0.25-0.68,0.4a3.254,3.254,0,0,0-.61.41,0.709,0.709,0,0,1-.71.35,0.943,0.943,0,0,0-.55.36,12.876,12.876,0,0,1-3.13,1.91c-1.2.72-2.7,0.79-3.74,1.81a0.621,0.621,0,0,1-.43.16,0.637,0.637,0,0,0-.64.6,2.671,2.671,0,0,0-.86.1c-1.41.78-2.8,1.59-4.17,2.39-0.08.66-.28,1.3,0.44,1.67a1.412,1.412,0,0,0,1.57-.38,38.444,38.444,0,0,1,5.12-2.89,9.993,9.993,0,0,1,2.45-.99,1.014,1.014,0,0,0,.32-0.18c0.55-.38.74-0.29,0.84,0.36,0.07,0.41.2,0.82,0.29,1.19,0.77-.05,1.41-0.1,2.04-0.14a3.625,3.625,0,0,0,1.88,1.47,3.772,3.772,0,0,1,.85.43,14.456,14.456,0,0,0,3.45,1.32,31.6,31.6,0,0,0,3.81.69,14.106,14.106,0,0,0,2.34.06,0.923,0.923,0,0,1,.44.05,1,1,0,0,0,1.09-.13c0.22,0.26.41,0.5,0.63,0.76a1.234,1.234,0,0,0,1.09-1.24,6.475,6.475,0,0,0,.22-1.67,0.989,0.989,0,0,0-.93-0.9,2.321,2.321,0,0,1-1.72-1.06,18.327,18.327,0,0,0-4.05-3.19,7.836,7.836,0,0,0-3.91-1.09,26.379,26.379,0,0,0-3.44.41,0.928,0.928,0,0,1,.19-0.27,3.314,3.314,0,0,0,1.21-.71c0.3-.47.89-0.29,1.16-0.71a0.887,0.887,0,0,1,.53-0.12,2.137,2.137,0,0,0,1.41-.83,7.247,7.247,0,0,1,1.49-1.33,23.036,23.036,0,0,1,2.36-1.24,2.679,2.679,0,0,1,.61-0.13,1.561,1.561,0,0,0,1.24,1.41,4.217,4.217,0,0,1,1.1.88c0.48,0.4.86,1,1.64,0.79a1.328,1.328,0,0,0,.84.58,29.539,29.539,0,0,0,4.54,1.13,23.366,23.366,0,0,0,3.84.18,13.52,13.52,0,0,0,2.54-.27c1.53-.37,1.76-0.52,2.37-2-0.13-.24-0.25-0.49-0.39-0.73a1.1,1.1,0,0,0-1.14-.78,0.7,0.7,0,0,1-.51-0.16,21.782,21.782,0,0,0-4.28-2.99,8.136,8.136,0,0,0-3.15-1c-0.62-.07-1.26-0.07-1.88-0.12a5.672,5.672,0,0,0-2.34.41,3.881,3.881,0,0,1-.95.07,4.82,4.82,0,0,1,1.87-1.88,3.933,3.933,0,0,1,1.53-.53,0.815,0.815,0,0,0,.77-0.79c-0.06-1.65,1.3-2.33,2.11-3.44a2.4,2.4,0,0,1,.57.38,0.64,0.64,0,0,0,1.01.05,1.008,1.008,0,0,1,.62-0.31,1.479,1.479,0,0,1,.88.62c0.17,0.46.45,0.35,0.75,0.33,0.27,0.45.36,1.15,1.16,0.8a0.287,0.287,0,0,1,.25.12,3.155,3.155,0,0,0,2.33.86,29.564,29.564,0,0,0,4.61.26,12.411,12.411,0,0,0,2.54-.63,2.532,2.532,0,0,1,.66-0.11,5.622,5.622,0,0,0,2.51-.89c0.98,0.36.98,0.36,1.58-.57-0.07-.36-0.12-0.7-0.2-1.04a2.465,2.465,0,0,0-.72-1.4c-0.95-.85-1.77-1.84-2.77-2.61a13.04,13.04,0,0,0-3.07-1.86,5.679,5.679,0,0,0-4.08-.05,1.188,1.188,0,0,1-.34.13,5.384,5.384,0,0,0-3.09,1.32,9.975,9.975,0,0,1-1.98,1.01c0.62-1.45,1.38-2.73,3.1-2.95,0.12-.5.55-0.88,0.12-1.37a0.529,0.529,0,0,1,.05-0.45c0.73-1.22,1.48-2.42,2.18-3.56,0.46,0.08.9,0.15,1.47,0.24a7.956,7.956,0,0,0,5.72,2.24c1.42,0,2.84-.3,4.26-0.39a6.517,6.517,0,0,0,2-.44,7.167,7.167,0,0,0,3.06-1.81,2.429,2.429,0,0,0,.28-3.28,6.988,6.988,0,0,0-1.42-1.51,8.32,8.32,0,0,0-4.8-2.22,7.972,7.972,0,0,0-2.18.12,8.741,8.741,0,0,0-3.03,1.16C2051.14,4754.56,2050.05,4755.25,2048.96,4755.95Zm-43.84-99.84a3.932,3.932,0,0,0-.49-0.18c-0.97-.15-1.95-0.27-2.92-0.51a8.1,8.1,0,0,1-3.75-1.89,4.671,4.671,0,0,1-1.74-3.85,2.108,2.108,0,0,1,1.74-.31,1.076,1.076,0,0,0,.56-0.09,5.244,5.244,0,0,1,2.86-.07,7.612,7.612,0,0,0,1.61.49c1.02,0.03,1.27,1.11,2.09,1.36-0.12.83,0.66,1.25,0.88,1.92,0.28,0.88.72,1.77-.18,2.57C2005.55,4655.75,2005.32,4655.94,2005.12,4656.11Zm54.52,62.48c-0.23-.03-0.66-0.09-1.09-0.17a0.537,0.537,0,0,1-.47-0.63,2.291,2.291,0,0,1,.44-1.3,20.193,20.193,0,0,0,2.1-2.44,4.833,4.833,0,0,1,.74-0.86,6.8,6.8,0,0,1,2.37-1.24,3.647,3.647,0,0,1,2.01.18,16.85,16.85,0,0,1,2.4,1.37c0.64,0.4.72,0.96,0.08,1.35a11.232,11.232,0,0,0-1.26,1.11,9.978,9.978,0,0,1-1.42,1.12A12.929,12.929,0,0,1,2059.64,4718.59Zm-4.91,52.3a5.3,5.3,0,0,1-.96.54c-0.7.23-1.42,0.39-2.12,0.6a9.8,9.8,0,0,1-3.48.47c-0.84-.05-1.66-0.18-2.5-0.18a7.374,7.374,0,0,1-2.47-.58,1.337,1.337,0,0,1-1.1-1.02,1.863,1.863,0,0,1,.58-0.74c1.1-.3,1.99-1.01,3.04-1.37a17.036,17.036,0,0,1,2.81-.84,3.6,3.6,0,0,1,2.69.27A14.326,14.326,0,0,1,2054.73,4770.89Zm-1.11-10.81c-0.89-.21-1.84-0.42-2.78-0.65a4.032,4.032,0,0,1-.82-0.3,0.486,0.486,0,0,1-.12-0.9,8.047,8.047,0,0,1,1.46-1.03c1.22-.59,2.42-1.22,3.68-1.71a5.365,5.365,0,0,1,3.67-.26,5.6,5.6,0,0,1,2.76,1.64c0.43,0.53.47,0.88-.08,1.27a5.893,5.893,0,0,1-2.02,1.04C2057.51,4759.56,2055.61,4759.78,2053.62,4760.08Zm4.03-28.07a10.043,10.043,0,0,1,3.17-3.13,8.163,8.163,0,0,1,3.88-1.41,10.866,10.866,0,0,1,4.23.61,4.569,4.569,0,0,1-2.14,2.25,27.586,27.586,0,0,1-3.77,1.54,7.855,7.855,0,0,1-1.85.41,19.247,19.247,0,0,1-2.4.03A5.893,5.893,0,0,1,2057.65,4732.01Zm-10.48-49.51a2.235,2.235,0,0,1-.08-0.75c0.4-1.54.45-3.15,1.3-4.6a5.161,5.161,0,0,1,2.61-2.18,6.1,6.1,0,0,1,2.15-.15,0.457,0.457,0,0,1,.47.65c-0.43,1.45-.67,2.98-1.78,4.15-0.57.59-1.15,1.18-1.71,1.78a6.425,6.425,0,0,1-1.52,1.07A1.231,1.231,0,0,1,2047.17,4682.5Zm7.65,61.71c0.85-.61,1.55-1.14,2.27-1.63a2.2,2.2,0,0,1,.7-0.21,1.384,1.384,0,0,0,.42-0.05,9.146,9.146,0,0,1,3.27-1.25,6.678,6.678,0,0,1,2.68.09,6.764,6.764,0,0,1,2.65,1.53,2.37,2.37,0,0,1-.46.48c-0.66.32-1.33,0.6-2.01,0.89a0.815,0.815,0,0,0-.68.52,5.876,5.876,0,0,0-1.06-.15c-1.23.08-2.46,0.27-3.69,0.3a31.131,31.131,0,0,1-3.34-.17A2.558,2.558,0,0,1,2054.82,4744.21Zm6.44-57.84a3.157,3.157,0,0,1-.31,1.26,10.55,10.55,0,0,1-1.84,2.34c-1.44,1.04-2.65,2.38-4.35,3.07a1.076,1.076,0,0,1-1.45-.07,8.857,8.857,0,0,1,1.21-3.5c0.27-.45.61-0.85,0.87-1.31a3.705,3.705,0,0,1,2.51-1.74A15.546,15.546,0,0,1,2061.26,4686.37Zm5.59,13.93a3.83,3.83,0,0,1-.65.68,15.4,15.4,0,0,1-2.3,1.3c-1.66.64-3.35,1.22-5.05,1.72a5.271,5.271,0,0,1-2.36.29,4.409,4.409,0,0,1,1.2-2.18,17,17,0,0,1,1.39-1.28A5.84,5.84,0,0,1,2066.85,4700.3Zm-35.3,80.97a9.9,9.9,0,0,1,5.52-.99,11.484,11.484,0,0,1,5.68,2.9,1.725,1.725,0,0,1-.64.29c-1.17-.03-2.35-0.09-3.52-0.16a11.951,11.951,0,0,0-1.32-.18,10.036,10.036,0,0,1-3.13-.59A6.8,6.8,0,0,1,2031.55,4781.27Zm-2.32-118.25a4.641,4.641,0,0,0-.09-0.97,9.838,9.838,0,0,1-.36-4.79,3.353,3.353,0,0,1,.98-1.91c0.73-.67,1.32-0.62,1.7.19a6.5,6.5,0,0,1,.73,2.23,6.082,6.082,0,0,1-.38,2.82,24.928,24.928,0,0,1-1.06,2.29,0.731,0.731,0,0,1-1.12.32C2029.49,4663.14,2029.35,4663.07,2029.23,4663.02Zm12.51,81.39a19.182,19.182,0,0,1,2.46,1.08,7.541,7.541,0,0,1,2.89,2.24,4.577,4.577,0,0,0,.7.76c0.87,0.87.93,1.23,0.46,2.51a4.109,4.109,0,0,1-1.46-.25,19.357,19.357,0,0,1-3.95-2.59A3.558,3.558,0,0,1,2041.74,4744.41Zm-22.79,28.94a2.187,2.187,0,0,1,1.68,1.41,2,2,0,0,0,.4.53,3.443,3.443,0,0,1,.9,1.18,5.424,5.424,0,0,1,.44,2.11,1.215,1.215,0,0,0,.14.84,2.465,2.465,0,0,1,.07,1.54,0.976,0.976,0,0,1-.5.74,1.377,1.377,0,0,1-.81-0.32,4.693,4.693,0,0,1-1.57-2.04,7.445,7.445,0,0,1-1.24-3.64A3.53,3.53,0,0,1,2018.95,4773.35Zm18.02-16.44c0.22,0.02.44,0.02,0.66,0.05a6.237,6.237,0,0,1,1.83.99,7.048,7.048,0,0,1,2.85,3.35,1.518,1.518,0,0,1,.01,1.3c-0.25.66-.52,0.83-1.17,0.57a15.6,15.6,0,0,1-1.66-.89,1.283,1.283,0,0,1-.55-0.25,1.739,1.739,0,0,0-.83-0.82c-0.29-.21-0.28-0.75-0.78-0.82a0.6,0.6,0,0,1-.06-0.22c-0.08-.27-0.17-0.53-0.25-0.8A2.691,2.691,0,0,1,2036.97,4756.91Zm-17.93,32.22c2.04-.71,3.97-1.17,6.03-0.52a10.412,10.412,0,0,1,4.63,3.23,12.979,12.979,0,0,1-4.93-.48A16.54,16.54,0,0,1,2019.04,4789.13Zm0.98-131.86a1.978,1.978,0,0,1-1.5.07c-0.62-.17-0.63-0.11-0.57-0.74a0.71,0.71,0,0,0-.13-0.41,6.492,6.492,0,0,1-1.02-3.5,2.208,2.208,0,0,1,.25-1.09,3.275,3.275,0,0,1,1.66-1.64A7.735,7.735,0,0,1,2020.02,4657.27Zm20.65,6.18a3.107,3.107,0,0,1,1.04,2.48,8.16,8.16,0,0,1-.91,4.3,2.986,2.986,0,0,1-1.41,1.61,5.3,5.3,0,0,1-.34-0.99c-0.12-.96-0.22-1.93-0.27-2.9-0.03-.55.05-1.11,0.07-1.67a2.993,2.993,0,0,1,.59-1.54A4.58,4.58,0,0,1,2040.67,4663.45Zm-7.37,109.91a1.566,1.566,0,0,1-.3-0.06,11.288,11.288,0,0,1-3.42-2.83,5.185,5.185,0,0,1-1.02-2.93c-0.08-.85.4-1.15,1.18-0.78a1.772,1.772,0,0,1,.46.31,10.975,10.975,0,0,1,1.81,2.07,28.717,28.717,0,0,1,1.35,3.71A1.494,1.494,0,0,1,2033.3,4773.36Zm11.1-72.86a8.1,8.1,0,0,1,6.72.5c0.08,0.39.16,0.79,0.26,1.32-1.18.09-2.28,0.2-3.38,0.24a3.238,3.238,0,0,1-.94-0.31,0.923,0.923,0,0,0-.44-0.08c-0.43.48-.79-0.05-1.02-0.17a4.958,4.958,0,0,1-1.12-1.12A1.221,1.221,0,0,1,2044.4,4700.5Zm-3.64-8.39c0.35-.24.62-0.46,0.92-0.63a5.889,5.889,0,0,1,1.7-.85,9.3,9.3,0,0,1,2.89-.3,0.856,0.856,0,0,1,.94.82,2.9,2.9,0,0,1-1.02,1.04,7.63,7.63,0,0,0-1.79.8,3.779,3.779,0,0,1-2.54.17A1.508,1.508,0,0,1,2040.76,4692.11Zm-6.08-8.61a6.647,6.647,0,0,1,.6-0.59,8.883,8.883,0,0,1,4-1.86,3.651,3.651,0,0,1,2.19.45c-0.23.32-.41,0.58-0.61,0.82a1.324,1.324,0,0,1-.45.46,21.618,21.618,0,0,1-3.5,1.39A2.083,2.083,0,0,1,2034.68,4683.5Zm18.79,29.49a12.137,12.137,0,0,1-3.47-.28,4.2,4.2,0,0,1-2.44-1.33,0.716,0.716,0,0,1,.01-1.09,2.673,2.673,0,0,0,.47.07,13.152,13.152,0,0,1,4.69,1.24C2053.5,4711.91,2053.55,4712.07,2053.47,4712.99Zm-36.72-45.09c0.38-1.98,2.38-2.18,3.3-3.43,1.04,0,2.01-.68,3.22-0.36a14.318,14.318,0,0,1-4.94,3.5A6.362,6.362,0,0,1,2016.75,4667.9Zm32.2,68.57c-1.35-.6-2.52-1.11-3.72-1.64-0.05-.22-0.1-0.5-0.16-0.77,1.9-.73,6.08.82,6.49,2.58C2050.62,4736.99,2049.73,4736,2048.95,4736.47Zm4.65-10.67a2.348,2.348,0,0,1-.73.13,17.544,17.544,0,0,1-3.5-.85c-0.92-.41-1.99-0.89-2.23-2.12C2048.89,4722.57,2052.46,4724.1,2053.6,4725.8Zm-21.33-53.24a8.143,8.143,0,0,1-2.91,1.62,16.207,16.207,0,0,1-2.5.58,0.665,0.665,0,0,1-.96-0.58A8.986,8.986,0,0,1,2032.27,4672.56Zm-26.21-10.14a5.569,5.569,0,0,1,2.45-2.08,5.757,5.757,0,0,1,2.97-.72A9.713,9.713,0,0,1,2006.06,4662.42Z" transform="translate(-1994 -4647)"/>
</svg>
