<svg id="Layer_1" data-name="Layer 1" xmlns="http://www.w3.org/2000/svg" viewBox="0 0 100 81.47"><title>map</title><path d="M84.72,45a3.41,3.41,0,0,0-.93-.61c-.66-.27-1.21,1-.55,1.31a2.62,2.62,0,0,1,.71.46c-.72,1.06-1.49,2.07-2.27,3.05a4.62,4.62,0,0,1-.7-.37,7.71,7.71,0,0,1-1.58-1.69c-.42-.53-1.74,0-1.27.58a10.76,10.76,0,0,0,1.6,1.77,5,5,0,0,0,1.17.69c-.61.75-1.22,1.47-1.81,2.16-.34.4-.66.82-1,1.23a1.89,1.89,0,0,1-.24-.17,16.14,16.14,0,0,1-1-1.33,6.59,6.59,0,0,0-2.4-1.39c-.66-.28-1.31,1-.66,1.26a4.94,4.94,0,0,1,2.56,1.7,3.37,3.37,0,0,0,.88,1c-.94,1.21-1.87,2.44-2.77,3.68a8,8,0,0,0-.65-.92,16.11,16.11,0,0,0-2.55-2.24c-.57-.44-1.69.09-1,.67a21.82,21.82,0,0,1,2.08,1.72,7.24,7.24,0,0,1,1.28,1.86c-.56.76-1.12,1.52-1.68,2.27C66.06,53.25,54.7,43,56.63,32.36c1.52-8.42,7.88-12,15.87-12.26,9.34-.28,14.74,8.06,15.62,16.53A21.64,21.64,0,0,1,84.72,45ZM79.64,19.46c-5.89-2.93-14.22-1.08-19.43,2.32C53.89,25.92,53,35,55.65,41.32c3.63,8.52,10.33,15,15.26,22.74A1.39,1.39,0,0,0,73,64c5.94-7.82,15.8-16.9,17.45-27a.73.73,0,0,0,.08-.41c-.75-7.19-4.34-13.88-10.83-17.11Z"/><path d="M96.29,52.76c-.22,2.49-.31,5-.33,7.41a13.21,13.21,0,0,0-1.33-1.36,7.27,7.27,0,0,0-2.26-1.18c-.63-.24-1.23,1-.51,1.31a7.25,7.25,0,0,1,1.81.92,12,12,0,0,1,1.65,1.7.48.48,0,0,0,.63.08c0,2.47.08,4.94.19,7.41a11.34,11.34,0,0,1-3.07-3.53A22.46,22.46,0,0,0,89,60.59c-.66-.66-1.18.44-.66,1A25,25,0,0,1,92.68,67a11.49,11.49,0,0,0,3.55,3.58q.13,2.46.29,4.92a64.64,64.64,0,0,0-8.65-8.23c-.52-.42-1.64.37-1,.9a60.55,60.55,0,0,1,9.79,9.68c0,.46.06.91.08,1.37q-2.48-.51-5-.95c-2.29-3-4.56-6-6.66-9.13-.4-.59-1.58.2-1.18.8,1.84,2.74,3.81,5.37,5.8,8q-2.42-.4-4.86-.72a12.22,12.22,0,0,0-1.24-1.71,8.07,8.07,0,0,0-1.85-1.35c-.57-.35-1.52.63-.81,1.06a7.93,7.93,0,0,1,1.47,1.06A4.65,4.65,0,0,1,83,77a135.11,135.11,0,0,0-16.17-.93q-.26-3.17-.52-6.34a33.78,33.78,0,0,1,.59-6.16c.1-.93-1.79-1-1.9,0-.21,1.9-.77,4.05-.61,5.95q.27,3.3.55,6.61c-1,0-2,0-3,.07a138.64,138.64,0,0,0-19.6,1.86c-1.81.32-5.67,1.22-7.48,1.45a1.06,1.06,0,0,0,.12-.37c.37-3.12,1.59-7,1.18-10.15q-.74-5.64-1.48-11.28c-.94-7.17-.31-13.56.29-20.89.12-1.48-2-.82-2.07.32-.54,6.54-1.42,12.79-.57,19.29l1.71,13c.4,3-.74,6.83-1.12,9.89l-11.33-2c-6.15-1.07-12.21-1.12-18.46-1.33a2.78,2.78,0,0,0,.09-.58q.2-2.9.41-5.79c.22-3.15.91-6.61.67-9.78-.93-12.4-2.68-25.11-2.08-37.21L2.92,9.55l.19-3.94,1.08,0c2.62.1,5.1.21,7.53.37-3.17,4.55-4.19,9.37-1.5,14.89A85.56,85.56,0,0,0,23.12,40.21a1.4,1.4,0,0,0,2-.06c6-7.92,13.58-15.06,14.21-25.52a17.08,17.08,0,0,0-1.75-5.88c8.73.15,17.21-1.05,26.3-2.8.47-.09.86-.15,1.22-.19.41,3.37.8,6.73,1.06,10.11.07,1,2,1,1.9,0-.26-3.39-.65-6.76-1.06-10.14.75.09,1.62.26,3,.49L83.58,8.53a40.89,40.89,0,0,0,6,.43l6.34.12a4.26,4.26,0,0,0,1-.07,1.32,1.32,0,0,0-.06.5q.56,11.6,1.11,23.2c.31,6.06-1.12,13.65-1.68,20.06ZM37,14.69A24.12,24.12,0,0,1,33.51,25.5c-.11-.12-.21-.26-.33-.42-.32-.45-.58-1-.86-1.44-.38-.66-1.56.1-1.23.68s.71,1.27,1.12,1.86a2.8,2.8,0,0,0,.54.57c-.75,1.17-1.55,2.32-2.39,3.44a9.51,9.51,0,0,0-1-1.49,17.72,17.72,0,0,0-2.93-2.49c-.54-.41-1.48.63-.87,1.1A19.87,19.87,0,0,1,28,29.39a8.61,8.61,0,0,1,1.37,2c-.82,1.06-1.67,2.11-2.52,3.16a4.58,4.58,0,0,0-1.05-1.26,24.52,24.52,0,0,0-2.31-1.69c-.62-.44-1.16.87-.61,1.26s1.31.91,1.95,1.39A6.21,6.21,0,0,1,26,35.34a1.09,1.09,0,0,1,.12.25q-1,1.22-2,2.44a78.21,78.21,0,0,1-12.92-20.6c-3-7.35,5.48-15,11.92-15.34C30.68,1.67,36.23,7.47,37,14.69ZM99.16,8c0-.46-.65-.67-1-.68A164.26,164.26,0,0,1,73,4.88c-2.89-.48-5.76-1.38-8.66-.82L49.45,6.93a46.81,46.81,0,0,1-12.62.39,17.14,17.14,0,0,0-6.92-6C25.75-.76,17.34-.52,14,3.15c-.35.38-.68.77-1,1.16C9.46,4,5.87,3.88,2.16,3.75c-.48,0-1.29.31-1.31.88C.28,16-.46,27,.38,38.36Q1.19,49.12,2,59.88c.39,5.16-.76,11.57-1.15,17,0,.6.48.9,1,.92A168.81,168.81,0,0,1,26.42,80.1c2.73.47,5.86,1.59,8.64,1.09l14.67-2.66c6.5-1.18,14.76-.77,21.75-.43a149,149,0,0,1,25.74,3.18c2.17.75,1.92-.9,1.92-.91a1,1,0,0,0,0-.12q-.57-9.8-1.14-19.59c-.32-5.48,1-12.28,1.5-18,1-11.63.21-23-.35-34.65Z"/><path d="M23.46,10.3c1.49.1,3.43.64,3.66,2.32a3.86,3.86,0,0,1-2.72,3.68,2.84,2.84,0,0,1-3.66-2.61C20.79,11.84,21.37,10.17,23.46,10.3Zm.41,8.26c3.11-.22,5-3.61,5.18-6.45,0-.08,0-.25,0-.28C28.82,9,25.5,7.84,23,8c-3,.22-4,3.52-4.17,6-.2,3,2.18,4.71,5,4.5Z"/><path d="M72.17,37.73c-2.64.31-3.58-1.62-3.78-3.92-.22-2.52,1.83-5.23,4.57-4.65,2.25.48,3.4,3.45,3.54,5.48-.23,2.23-2.36,2.85-4.33,3.08Zm1-10.41a6.46,6.46,0,0,0-7.09,6c-.19,3.56,1.9,6.27,5.55,6.19,3-.07,7-1.37,7.26-4.87,0,0,0-.19,0-.24-.14-3.05-2.34-6.87-5.73-7.11Z"/></svg>