<svg id="Layer_1" data-name="Layer 1" xmlns="http://www.w3.org/2000/svg" viewBox="0 0 31.44 63.59"><defs></defs><title>pineapple</title><path class="cls-1" d="M15.19,28.4A12.35,12.35,0,0,1,21.07,27a12.31,12.31,0,0,1,5.87,1.42,30.24,30.24,0,0,1,6.38-5.69A4.5,4.5,0,0,0,29.65,21,5.92,5.92,0,0,0,24.42,24,9.32,9.32,0,0,0,21.1,13V13l0,0,0,0V13a9.32,9.32,0,0,0-3.31,11A5.92,5.92,0,0,0,12.49,21a4.5,4.5,0,0,0-3.67,1.75A30.25,30.25,0,0,1,15.19,28.4Z" transform="translate(-5.35 -5.64)"/><path class="cls-1" d="M26,21.12a7.08,7.08,0,0,1,3.95-1.05A34.74,34.74,0,0,1,33.34,17c-2.09-3.14-6-2.29-8,.08A9.66,9.66,0,0,1,26,21.12Z" transform="translate(-5.35 -5.64)"/><path class="cls-1" d="M12.23,20.06a7.09,7.09,0,0,1,3.95,1.05,9.66,9.66,0,0,1,.65-4.07c-2-2.37-5.94-3.22-8-.08A34.72,34.72,0,0,1,12.23,20.06Z" transform="translate(-5.35 -5.64)"/><path class="cls-1" d="M21.07,11.9A12.8,12.8,0,0,1,25,16.28,11.84,11.84,0,0,0,21.1,5.71V5.64l0,0,0,0v.07a11.84,11.84,0,0,0-3.85,10.57A12.81,12.81,0,0,1,21.07,11.9Z" transform="translate(-5.35 -5.64)"/><rect class="cls-1" x="18.27" y="51.13" width="5.59" height="5.59" transform="translate(-37.31 25.05) rotate(-45)"/><rect class="cls-1" x="18.27" y="40.69" width="5.59" height="5.59" transform="translate(-29.93 21.99) rotate(-45)"/><rect class="cls-1" x="13.05" y="45.91" width="5.59" height="5.59" transform="translate(-35.15 19.83) rotate(-45)"/><rect class="cls-1" x="7.84" y="40.69" width="5.59" height="5.59" transform="translate(-32.99 14.62) rotate(-45)"/><rect class="cls-1" x="23.49" y="35.48" width="5.59" height="5.59" transform="translate(-24.71 24.15) rotate(-45)"/><rect class="cls-1" x="13.05" y="35.48" width="5.59" height="5.59" transform="translate(-27.77 16.78) rotate(-45)"/><rect class="cls-1" x="23.49" y="45.91" width="5.59" height="5.59" transform="translate(-32.09 27.21) rotate(-45)"/><path class="cls-1" d="M10.63,60.41,8.41,62.63a13.27,13.27,0,0,0,3.76,4.15l2.42-2.42Z" transform="translate(-5.35 -5.64)"/><rect class="cls-1" x="28.71" y="40.69" width="5.59" height="5.59" transform="translate(-26.87 29.37) rotate(-45)"/><path class="cls-1" d="M31.5,60.41l-4,4L30,66.78a13.27,13.27,0,0,0,3.76-4.15Z" transform="translate(-5.35 -5.64)"/><path class="cls-1" d="M10.63,37l4-4L13.1,31.56a21.41,21.41,0,0,0-3.72,4.19Z" transform="translate(-5.35 -5.64)"/><path class="cls-1" d="M36.62,52.56c.11-1.25.17-2.54.17-3.86a22.37,22.37,0,0,0-.32-3.7l-3.71,3.71Z" transform="translate(-5.35 -5.64)"/><path class="cls-1" d="M31.5,37l1.25-1.25A21.41,21.41,0,0,0,29,31.56l-1.49,1.49Z" transform="translate(-5.35 -5.64)"/><rect class="cls-1" x="18.27" y="30.26" width="5.59" height="5.59" transform="translate(-22.55 18.94) rotate(-45)"/><path class="cls-1" d="M26.29,31.79l1.33-1.33a13,13,0,0,0-4.83-2.17Z" transform="translate(-5.35 -5.64)"/><path class="cls-1" d="M9.37,59.14,5.95,55.72A23.14,23.14,0,0,0,7.54,61Z" transform="translate(-5.35 -5.64)"/><path class="cls-1" d="M15.85,31.79l3.5-3.5a13,13,0,0,0-4.83,2.17Z" transform="translate(-5.35 -5.64)"/><path class="cls-1" d="M9.37,38.27l-1-1a23.55,23.55,0,0,0-1.66,3.58Z" transform="translate(-5.35 -5.64)"/><path class="cls-1" d="M15.85,65.62l-2.1,2.1a15.16,15.16,0,0,0,5.71,1.51Z" transform="translate(-5.35 -5.64)"/><path class="cls-1" d="M32.77,59.14,34.59,61a23.15,23.15,0,0,0,1.6-5.25Z" transform="translate(-5.35 -5.64)"/><path class="cls-1" d="M5.52,52.56l3.85-3.85L5.66,45a22.37,22.37,0,0,0-.31,3.7C5.35,50,5.41,51.31,5.52,52.56Z" transform="translate(-5.35 -5.64)"/><path class="cls-1" d="M26.29,65.62l-3.61,3.61a15.15,15.15,0,0,0,5.71-1.51Z" transform="translate(-5.35 -5.64)"/><rect class="cls-1" x="13.05" y="56.35" width="5.59" height="5.59" transform="translate(-42.53 22.89) rotate(-45)"/><rect class="cls-1" x="18.27" y="61.56" width="5.59" height="5.59" transform="translate(-44.69 28.11) rotate(-45)"/><path class="cls-1" d="M32.77,38.27l2.62,2.62a23.52,23.52,0,0,0-1.66-3.58Z" transform="translate(-5.35 -5.64)"/><rect class="cls-1" x="7.84" y="51.13" width="5.59" height="5.59" transform="translate(-40.36 17.67) rotate(-45)"/><rect class="cls-1" x="23.49" y="56.35" width="5.59" height="5.59" transform="translate(-39.47 30.26) rotate(-45)"/><rect class="cls-1" x="28.71" y="51.13" width="5.59" height="5.59" transform="translate(-34.25 32.43) rotate(-45)"/></svg>
