<svg xmlns="http://www.w3.org/2000/svg" xmlns:xlink="http://www.w3.org/1999/xlink" width="548.97" height="45.03" viewBox="0 0 548.97 45.03">
  <metadata><?xpacket begin="﻿" id="W5M0MpCehiHzreSzNTczkc9d"?>
<x:xmpmeta xmlns:x="adobe:ns:meta/" x:xmptk="Adobe XMP Core 5.6-c138 79.159824, 2016/09/14-01:09:01        ">
   <rdf:RDF xmlns:rdf="http://www.w3.org/1999/02/22-rdf-syntax-ns#">
      <rdf:Description rdf:about=""/>
   </rdf:RDF>
</x:xmpmeta>





















<?xpacket end="w"?></metadata>
<defs>
    <style>
      .cls-1 {
        fill: ##8b683e;
        fill-rule: evenodd;
        filter: url(#filter);
      }
    </style>
    <filter id="filter" x="1184" y="4805.97" width="548.97" height="45.03" filterUnits="userSpaceOnUse">
      <feFlood result="flood" flood-color="#8b683e"/>
      <feComposite result="composite" operator="in" in2="SourceGraphic"/>
      <feBlend result="blend" in2="SourceGraphic"/>
    </filter>
  </defs>
  <path class="cls-1" d="M1458.96,4824.3c2.83,0.51,5.03,2.15,7.24,3.68a72.957,72.957,0,0,0,10.83,5.94,17.116,17.116,0,0,0,8.22,1.42c6.47-.26,12.95-0.34,19.43-0.37,2.7-.01,5.41.36,8.1-0.27a2.8,2.8,0,0,1,.71-0.01c9.18,0.51,18.36-.25,27.54-0.17,2.48,0.02,4.96.21,7.43,0.32,0.48,0.02.94,0.07,1.42,0.07a238.752,238.752,0,0,1,26.45,1.51c4.9,0.53,9.9.22,14.85,0.27,2.24,0.02,4.48.01,6.73,0.01,2.59,0.01,5.18-.03,7.77.04,2.11,0.06,4.23.29,6.34,0.38,2.24,0.09,4.48.15,6.73,0.13,4.47-.03,8.94-0.12,13.42-0.2,2-.04,4-0.15,6-0.17,11.21-.1,22.42-0.17,33.62-0.27,7.55-.07,15.1-0.17,22.65-0.24,4.82-.05,9.66.02,14.48-0.14,4.24-.14,8.47-0.59,12.71-0.78,3.18-.14,6.37-0.11,9.55-0.09a1.887,1.887,0,0,1,1.68,1.6,1.774,1.774,0,0,1-.41,1.96,3.1,3.1,0,0,1-2.44,1.21c-8.62-.49-17.2.76-25.81,0.71-5.79-.03-11.58.05-17.37,0.16-3.88.08-7.77,0.36-11.66,0.42-6.95.11-13.9,0.15-20.86,0.19s-13.92-.02-20.89.05c-5.43.06-10.85,0.33-16.27,0.36a17.532,17.532,0,0,1-6.95-.85,3.639,3.639,0,0,0-2.02-.05,11.7,11.7,0,0,1-4.49-.02c-2.3-.4-4.7-0.03-7-0.66a1.193,1.193,0,0,0-.7.03c-2.9,1.06-5.84.19-8.76,0.17-2.36-.02-4.71.04-7.06-0.06-2.24-.08-4.46-0.31-6.69-0.5-1.88-.16-3.75-0.44-5.63-0.54-5.3-.29-10.6-0.53-15.9-0.75-2.95-.11-5.9-0.22-8.85-0.2-11.08.07-22.16,0.2-33.24,0.3-3.66.03-7.32-.04-10.98,0.05-4.24.11-8.47,0.43-12.72,0.49-2.23.03-4.06,1.16-5.96,1.97-4.88,2.07-9.64,4.43-14.43,6.71a30.1,30.1,0,0,0-2.74,1.6,6.635,6.635,0,0,1-4.19,1.28c-1.24-1.6-3.16-2.43-5.13-3.22-4.05-1.61-8.05-3.34-12.11-4.97a26.456,26.456,0,0,0-10.36-1.85c-5.54.08-11.09,0.48-16.62-.07a66.962,66.962,0,0,0-9.18-.01c-3.07.11-6.13,0.02-9.2,0.02-2.48-.01-4.95-0.04-7.42-0.03-4.84.02-9.68,0.01-14.51,0.09-2.95.05-5.89,0.31-8.84,0.36-3.42.07-6.84,0.03-10.26,0.04-1.05,0-2.09.05-3.13,0.01-2-.09-4.13.16-5.97-0.44a16.131,16.131,0,0,0-9.03-.07,6.759,6.759,0,0,1-4.15-.07,3.793,3.793,0,0,0-2.4-.04,16.847,16.847,0,0,1-5.97.12,31.27,31.27,0,0,0-6.27-.14,187.23,187.23,0,0,1-19.1.11c-1.53-.06-3.07-0.01-4.6-0.01-7.44-.01-14.88.13-22.31-0.07-6.23-.16-12.45-0.76-18.68-1.05-2.82-.12-5.65.03-8.48,0.05-3.18.03-6.36,0.03-9.53,0.11-3.89.1-7.77,0.3-11.65,0.39-3.06.06-6.13-.07-9.15,0.66a9.1,9.1,0,0,1-2.45.08c-6.35-.26-12.69-0.18-19.05.19-2.44.15-4.91,0.11-7.36,0.04a2.123,2.123,0,0,1-1.4-.91,2.556,2.556,0,0,1-.03-3.13,9.783,9.783,0,0,1,1.59-.3c3.87-.11,7.75-0.17,11.62-0.26,6.61-.17,13.21-0.36,19.81-0.5q9.015-.2,18.04-0.28,9.2-.09,18.4-0.04c2.82,0.02,5.66.11,8.48,0.35,7.88,0.68,15.77.73,23.67,0.76,6.01,0.01,12.01-.47,18.03.16a63.362,63.362,0,0,0,8.49-.09c4.83-.14,9.67-0.33,14.5-0.47q6.18-.165,12.37-0.25c1.65-.03,3.29.02,4.94,0.05,6.37,0.13,12.74.35,19.11,0.36,3.65,0.01,7.3-.37,10.95-0.46,2-.04,4,0.27,6,0.25,3.3-.04,6.6-0.23,9.9-0.35a2,2,0,0,1,.35-0.02c8.36,0.72,16.75-.6,25.08.22,5.8,0.56,11.54-.18,17.31-0.11a14.335,14.335,0,0,0,5.07-1.41c2.19-.87,4.29-1.94,6.44-2.94,2.46-1.14,4.89-2.37,7.39-3.42A22.523,22.523,0,0,0,1458.96,4824.3Zm17.5,13.9c-3.72-2.18-6.77-3.95-9.81-5.75-1.32-.78-2.63-1.58-3.9-2.43a3.094,3.094,0,0,0-3.32-.19c-2.77,1.29-5.59,2.5-8.35,3.81-2.87,1.36-5.7,2.8-8.54,4.22a4.21,4.21,0,0,0-.76.9c3.13,1.31,6.02,2.62,8.99,3.72,3.06,1.14,5.83,3.06,8.61,3.55C1465.2,4843.36,1470.51,4840.92,1476.46,4838.2Zm19.66-6.05c-0.7-.37-1.53-0.79-2.34-1.27-4.35-2.58-8.68-5.23-13.02-7.84-4.65-2.81-9.3-5.56-14.18-7.95-2.52-1.24-4.92-2.76-7.29-4.11a14.475,14.475,0,0,0-5.35,2.26c-7,4.16-13.97,8.37-20.97,12.52-2.83,1.68-5.8,3.14-8.3,5.35a2.309,2.309,0,0,1-2.95.04,2.191,2.191,0,0,1-.57-3.1,4.455,4.455,0,0,1,1.27-1.22c7.25-3.7,14.04-8.2,21.09-12.25,4.49-2.58,8.94-5.26,13.37-7.95a3.387,3.387,0,0,1,4.21.19,45.478,45.478,0,0,0,5.73,3.5,147.131,147.131,0,0,1,15.05,8.56c4.1,2.76,8.51,5.05,12.78,7.55,0.51,0.3,1.02.6,1.54,0.88,0.82,0.46,1.74.81,1.81,1.97A2.558,2.558,0,0,1,1496.12,4832.15Zm-11.09-3.26a3.125,3.125,0,0,1,.28.69c0.33,3.73-.49,4.39-3.83,2.84a70.287,70.287,0,0,1-9.59-5.26c-3.03-2.03-6.09-3.99-9.16-5.97a9.185,9.185,0,0,0-1.56-.8,2.9,2.9,0,0,0-2.71.19c-4.11,2.54-8.62,4.3-12.69,6.96-2.75,1.79-5.76,3.18-8.68,4.71a5.013,5.013,0,0,1-3.14.12c-0.51-1.14-1.12-2.15-.71-3.51,1.85-1.79,4.31-2.68,6.57-3.91,5.67-3.11,11.37-6.17,17.06-9.25a7.517,7.517,0,0,0,.92-0.52,3.155,3.155,0,0,1,3.91.02c1.86,1.23,3.82,2.32,5.63,3.63a47.447,47.447,0,0,0,10.29,6.09,30.168,30.168,0,0,1,3.14,1.63C1482.09,4827.27,1483.42,4828.01,1485.03,4828.89Z" transform="translate(-1184 -4805.97)"/>
</svg>
