<svg xmlns="http://www.w3.org/2000/svg" width="306.72" height="7.91" viewBox="0 0 306.72 7.91">
  <metadata><?xpacket begin="﻿" id="W5M0MpCehiHzreSzNTczkc9d"?>
<x:xmpmeta xmlns:x="adobe:ns:meta/" x:xmptk="Adobe XMP Core 5.6-c138 79.159824, 2016/09/14-01:09:01        ">
   <rdf:RDF xmlns:rdf="http://www.w3.org/1999/02/22-rdf-syntax-ns#">
      <rdf:Description rdf:about=""/>
   </rdf:RDF>
</x:xmpmeta>
                                                                                                    
                                                                                                    
                                                                                                    
                                                                                                    
                                                                                                    
                                                                                                    
                                                                                                    
                                                                                                    
                                                                                                    
                                                                                                    
                                                                                                    
                                                                                                    
                                                                                                    
                                                                                                    
                                                                                                    
                                                                                                    
                                                                                                    
                                                                                                    
                                                                                                    
                                                                                                    
                           
<?xpacket end="w"?></metadata>
<defs>
    <style>
      .cls-1 {
        fill: #938a71;
        fill-rule: evenodd;
      }
    </style>
  </defs>
  <path id="Shape_20_copy_2" data-name="Shape 20 copy 2" class="cls-1" d="M1450.84,5988.63a30.071,30.071,0,0,1-.06,5.22,6.462,6.462,0,0,1-.45,1.47,38.089,38.089,0,0,1-6.32-.01,3.016,3.016,0,0,1-.77-0.28A42.935,42.935,0,0,1,1450.84,5988.63Zm-28.47,6.33a60.527,60.527,0,0,1,6.5-5.56,11.1,11.1,0,0,1,1.03-.58,11.238,11.238,0,0,1-.24,5.99A29.1,29.1,0,0,1,1422.37,5994.96Zm176.17,1.16a5.7,5.7,0,0,1,.42-0.7c1.87-1.91,3.43-4.1,5.74-5.7a2.618,2.618,0,0,1,.54,1.73c-0.02,1.4-.05,2.8-0.08,4.17C1603.83,5996.29,1602.22,5996.41,1598.54,5996.12Zm-137.14-7.01c0.01,2.16.19,4.11,0.01,6.01a19.667,19.667,0,0,1-6.67.11,1.15,1.15,0,0,1,.16-0.44A48.292,48.292,0,0,1,1461.4,5989.11Zm155.14,0.24c0.46,2-.11,3.92.02,5.97-2.35.08-4.61,0.16-6.86,0.22a0.562,0.562,0,0,1-.27-0.19A66.632,66.632,0,0,1,1616.54,5989.35Zm-62.15,1.78a11.481,11.481,0,0,1,.28,4.91,5.883,5.883,0,0,1-1.08.27,40.209,40.209,0,0,1-5.5-.09c-0.23-.41.09-0.48,0.23-0.6A40.124,40.124,0,0,1,1554.39,5991.13Zm40.2-.77c0.41,2.74.31,4.36-.33,5.86a12.614,12.614,0,0,1-5.97-.27C1590.35,5994.12,1592.38,5992.32,1594.59,5990.36Zm-216.69,5.06a7.505,7.505,0,0,1-1.43.19c-1.5-.07-2.99-0.19-4.54-0.3a0.93,0.93,0,0,1,.01-0.48c1.89-1.72,3.81-3.42,5.7-5.11a0.951,0.951,0,0,1,.34.22,2.648,2.648,0,0,1,.17.99C1377.95,5992.41,1378.25,5993.93,1377.9,5995.42Zm115.09-6.5c0.07,4.7.07,4.7-.44,5.85a54.2,54.2,0,0,1-5.95-.09c0.34-1.04,1.29-1.36,1.93-1.95,0.71-.66,1.44-1.31,2.18-1.95A17.3,17.3,0,0,1,1492.99,5988.92Zm81.29,1.62a3.283,3.283,0,0,1,.14.63c-0.05,1.35-.1,2.7-0.2,4.04a4.345,4.345,0,0,1-.39,1.15,31.508,31.508,0,0,1-5.23.09A17.255,17.255,0,0,1,1574.28,5990.54Zm-258.53-.23c0.21,1.59.7,3.21,0.2,4.86-2.02.46-3.9,0.05-5.95-.04a2.4,2.4,0,0,1,.35-0.61c1.41-1.34,2.83-2.65,4.25-3.97A0.893,0.893,0,0,1,1315.75,5990.31Zm181.57,4.16c2.08-1.67,4.15-3.35,6.22-5.01a0.84,0.84,0,0,1,.31.2c0.02,1.67.01,3.34,0.01,5.13-2.16.07-4.27-.02-6.39,0.04Zm-25.03-4.36c0.04,2.17.09,3.23-.73,4.9a17.717,17.717,0,0,1-5.82.29,0.6,0.6,0,0,1,0-.3A39.676,39.676,0,0,1,1472.29,5990.11Zm61.29,0.62a2.775,2.775,0,0,1,.12.44c0,1.23.01,2.46-.02,3.7a0.862,0.862,0,0,1-1.09.96c-1.67-.08-3.34-0.17-5.02-0.26a0.665,0.665,0,0,1-.23-0.24A30.181,30.181,0,0,1,1533.58,5990.73Zm-140.97,4.94c2.06-2.05,4.12-3.59,6.2-5.42a4.01,4.01,0,0,1,.2.79c-0.01,1.13-.01,2.26-0.06,3.39a1.064,1.064,0,0,1-1.27,1.24A35.628,35.628,0,0,1,1392.61,5995.67Zm41.39-1.26a52.983,52.983,0,0,1,5.5-4.7,0.772,0.772,0,0,1,.32.25,26.348,26.348,0,0,1-.27,4.79c-0.86.53-1.7,0.22-2.48,0.26a20.5,20.5,0,0,1-2.59-.18A0.394,0.394,0,0,1,1434,5994.41Zm48.43-4.91a13.3,13.3,0,0,1-.31,5.05,22.276,22.276,0,0,1-5.73.41,0.863,0.863,0,0,1,.06-0.45c1.8-1.59,3.61-3.18,5.43-4.75A2.375,2.375,0,0,1,1482.43,5989.5Zm-63.61.01a21.606,21.606,0,0,1-.04,5.26c-1.75.49-3.57,0.22-5.37,0.26a1.091,1.091,0,0,1,0-.42c1.69-1.69,3.4-3.38,5.1-5.06A0.708,0.708,0,0,1,1418.82,5989.51Zm-82.67,5.72a17.971,17.971,0,0,1-6.43.11,32.165,32.165,0,0,1,5.91-4.5,0.977,0.977,0,0,1,.22.93C1335.78,5992.94,1336.32,5994.08,1336.15,5995.23Zm-10.93.51a24.46,24.46,0,0,1-5.45-.33,69.452,69.452,0,0,1,5.91-4.69,2.655,2.655,0,0,1,.31,2.03A4.874,4.874,0,0,1,1325.22,5995.74Zm238.94,0.69a39.481,39.481,0,0,1-5.57-.38c1.77-1.78,3.45-3.45,5.24-5.24,0.42,1.7.29,3.28,0.53,4.82A2.669,2.669,0,0,1,1564.16,5996.43Zm-154.97-6.21a5.781,5.781,0,0,1,.23,1.04c0.01,0.96.01,1.92-.03,2.87a1,1,0,0,1-1.18,1.14c-1.27.08-2.55,0.13-3.82,0.18a7.722,7.722,0,0,1-.84-0.06,0.771,0.771,0,0,1-.06-0.34C1405.31,5993.49,1407.14,5991.95,1409.19,5990.22Zm-26.72,5.46c2.12-1.83,4.05-3.5,6.11-5.27a5.408,5.408,0,0,1-.11,2.7,4.725,4.725,0,0,1-.39,2.46A19.12,19.12,0,0,1,1382.47,5995.68Zm131.33-5.87c0,1.47.01,2.53-.01,3.59a2.976,2.976,0,0,1-.16.83,1.342,1.342,0,0,1-1.54,1.09c-1.28-.03-2.55-0.12-4.01-0.2,0.73-1.23,1.93-1.77,2.77-2.66A19.943,19.943,0,0,1,1513.8,5989.81Zm3.52,5.54a22.487,22.487,0,0,1,5.72-4.53,1.985,1.985,0,0,1,.18,1.41c0.01,0.51-.02,1.02-0.06,1.53s-0.12.99-.19,1.56A25.362,25.362,0,0,1,1517.32,5995.35Zm-150.12-5.15c-0.1,1.52-.17,2.69-0.27,3.86a7.983,7.983,0,0,1-.21,1.04c-1.79.1-3.53,0.46-5.45-.11a55.091,55.091,0,0,1,4.77-4.1A9.93,9.93,0,0,1,1367.2,5990.2Zm170.85,5.58a44.921,44.921,0,0,1,5.86-4.15c0.48,1.57-.09,2.96-0.12,4.34A14.077,14.077,0,0,1,1538.05,5995.78Zm-191.53-.77a14.746,14.746,0,0,1-5.43-.1,51.37,51.37,0,0,1,5.28-4.58,0.841,0.841,0,0,1,.33.24A18.025,18.025,0,0,1,1346.52,5995.01Zm9.88,0a39.933,39.933,0,0,1-5.61.1c1.7-1.93,3.73-3.06,5.65-4.9,0.02,1.6.05,2.76,0.05,3.92A6.1,6.1,0,0,1,1356.4,5995.01Zm222.11,1.24a26.7,26.7,0,0,1,4.66-4.41,8.748,8.748,0,0,1,.45,4.35A14.328,14.328,0,0,1,1578.51,5996.25Z" transform="translate(-1310 -5988.62)"/>
</svg>
